<svg version="1" xmlns="http://www.w3.org/2000/svg" width="721.333" height="721.333" viewBox="0 0 541.000000 541.000000"><path d="M283.6 35.6c-2.1 2.1-.4 5.4 2.8 5.4 2.7 0 3.9-2.7 2.4-5.4-1.1-2-3.2-2.1-5.2 0zM284 56.5c0 11.8.1 12.5 2 12.5s2-.7 2-12.5-.1-12.5-2-12.5-2 .7-2 12.5zM290 52.9V61h3.3c1.7 0 8.4-1.1 14.7-2.4 6.3-1.3 11.9-2.2 12.4-1.9.4.3-2.8 2.1-7.3 4.1-13.3 5.7-12.6 9.2 1.9 9.2 7.8 0 11 .8 8.8 2.1-.9.6-.7.9.8.9 1.2 0 2.7-.6 3.3-1.4 1.7-2.1-2-4.3-8.6-5.2-2.9-.3-5.3-1-5.3-1.5s3-2.4 6.8-4.1c11.3-5.5 9.2-9.7-5.8-11.3-8.6-.9-22.8-3.3-24-4-.6-.4-1 2.4-1 7.4zM283.6 72.6c-2 1.9-2 2.8-.1 4.4 1.8 1.5 4.5 1 5.9-1.3.9-1.5.7-2.1-.8-3.3-2.5-1.8-3.1-1.8-5 .2zM285 83c-.1.8-3.1 19.6-6.9 41.7l-6.8 40.3h16.2l2.9-15.3c1.6-8.3 3.1-16.9 3.4-19 .5-4.2-6.5-46.6-7.9-48.2-.6-.5-.9-.3-.9.5zM240 103.8c0 3.6-1.1 5.2-3.7 5.2-1.3 0-2.1.4-1.8 1 .3.5 1.4 1 2.4 1 1.9 0 3 2.5 3.2 7 0 2.3.1 2.3.9.5.5-1.1.9-3.2.9-4.8.1-2 .6-2.7 2-2.7 1.1 0 2.3-.5 2.6-1 .4-.6-.5-1-1.9-1-1.9 0-2.6-.6-2.7-2-.2-3.3-.4-3.8-1.1-4.6-.5-.4-.8.2-.8 1.4zM306 102.9c0 1.8 1.8 2.1 3 .6 1-1.3.9-1.5-.9-1.5-1.1 0-2.1.4-2.1.9zM224.7 104.3c-.4 1-.7 2.7-.7 3.7 0 1.3-.9 2-2.7 2.2l-2.8.4 2.8 1.2c1.8.8 2.7 1.9 2.7 3.4 0 1.3.5 3 1 3.8.7 1.1 1 .5 1-2.3 0-3.1.4-3.9 2.8-4.9l2.7-1.1-2.5-.6c-1.9-.5-2.6-1.5-3-4.1-.4-2.8-.7-3.1-1.3-1.7zM263 107.9c0 1.1-.4 2.1-.8 2.3-.5.1-.1 1.6.9 3.3 1.1 1.6 1.9 2.4 1.9 1.6 0-.8.7-2.3 1.7-3.3 1.5-1.7 1.5-1.8 0-1.8-1 0-1.7-.8-1.7-2 0-1.1-.4-2-1-2-.5 0-1 .9-1 1.9zM324.7 109.3c-.2.7-.1 2.1.3 3.2.7 1.9.7 1.9 1.7 0 .8-1.5.7-2.3-.2-3.2-1-.9-1.4-.9-1.8 0zM339 113c0 .7-.8 1.9-1.7 2.6-1.2.9-1.3 1.3-.5 1.4.7 0 1.7 1 2.1 2.2.9 2.2.9 2.2 1.7.3.4-1.1 1.2-2.3 1.7-2.6.6-.4 0-1.7-1.2-3-1.3-1.4-2.1-1.8-2.1-.9zM364.8 115.1c-.3.8-.2 2.3.2 3.3.6 1.8.7 1.8 1.3.2.4-1 .3-2.5-.1-3.3-.7-1.2-1-1.3-1.4-.2zM197.1 119.2c-.1 1-.8 1.8-1.6 1.8s-1.5.4-1.5 1c0 .5.7 1 1.5 1 .9 0 1.5 1 1.6 2.2.1 2 .2 1.9.9-.5.5-1.6.5-3.8 0-5-.7-1.8-.9-1.8-.9-.5zM248.8 123.1c-1.4 1.5-1.5 1.9-.4 1.9.8 0 1.7.6 1.9 1.2.3.7.6-.2.6-2 .1-3.7.2-3.7-2.1-1.1zM167.3 124.5c-.8 1.5-.8 2.6 0 4.2l1.2 2.2 1.2-2.5c.6-1.3.7-2.4.3-2.4-.5 0-1-.8-1.2-1.8-.4-1.5-.5-1.5-1.5.3zM297.6 124.1c-.3.8-1.6 7.9-3.1 15.9-1.4 8-3 16.3-3.5 18.5-1.6 6.7-1.8 6.5 7.6 6.5 7.7 0 8.5-.2 8-1.8-.2-.9-2.1-10.3-4.1-20.7-2-10.5-3.9-19.2-4.1-19.4-.2-.2-.6.2-.8 1zM210.6 124.9c-.4.5-.2 1.2.3 1.5.5.4 1.2.2 1.5-.3.4-.5.2-1.2-.3-1.5-.5-.4-1.2-.2-1.5.3zM320.2 125.5c-.7.9-.8 1.5-.2 1.5.5 0 1 .7 1 1.5s.5 1.5 1 1.5c.6 0 1-.7 1-1.5s.5-1.5 1.1-1.5c.6 0 .4-.7-.5-1.5-1.8-1.8-1.8-1.8-3.4 0zM358.1 128c-.2 3.2-1.1 4.6-3.6 5.3-1.8.4-1.8.5.2.6 1.9.1 2.4.9 3 4.3l.8 4.3.5-4c.4-3.1 1-4.1 3-4.6 2.3-.7 2.4-.7.3-.8-1.6-.1-2.4-.9-2.9-2.9-.9-4.4-1.2-4.9-1.3-2.2zM227.8 129.7c-.2 1.9-1 2.9-2.8 3.4l-2.5.6 2.8 1.1c2.1.9 2.7 1.8 2.7 4.2 0 1.6.5 3 1 3 .6 0 1-1.4 1-3 0-2.3.6-3.3 2.6-4.3l2.7-1.2-2.4-.5c-1.7-.4-2.5-1.4-2.7-3.3-.2-1.5-.7-2.7-1.2-2.7s-1 1.2-1.2 2.7zM393.7 128.3c-.9 2.3.8 4.1 2.2 2.4.9-1.1.8-1.7-.3-2.6-1-.9-1.5-.8-1.9.2zM178.6 138.9c-.6 4.9-1.7 6.1-5.7 6.1-1 0-1.9.4-1.9 1 0 .5.9 1 2.1 1 4.2 0 5.6 1.7 6.4 7.6.3 3 .9 5.4 1.1 5.1.2-.2.8-3 1.2-6.3.7-5.5.9-5.9 4-6.8 4.2-1.2 4.1-2.6-.2-2.6-3.7 0-4.6-1.2-4.6-6 0-4.9-1.7-4.2-2.4.9zM379.6 135.5c-.3.9-.2 2.4.2 3.2.8 1.3 1 1.3 1.6-.2.3-.9.2-2.4-.2-3.2-.8-1.3-1-1.3-1.6.2zM399.1 138.5c0 1.2-.6 2.6-1.3 3.3-.9.9-.9 1.5 0 2.4.7.7 1.3 2.1 1.3 3.2.1 2.1.1 2.1.6.1.3-1.1 1.2-2.8 2.1-3.8 1.4-1.5 1.4-1.7-.1-1.7-.9 0-1.7-1.1-2-2.8-.3-1.8-.5-2-.6-.7zM209.5 142c-.5 2.9-1.3 4.4-2.6 4.7-2.4.7-2.4 1.9 0 2.6 1.4.3 2.1 1.7 2.6 5.1.8 5.4 2.5 5.2 2.5-.4 0-3.6.3-3.9 3.8-5.1 2-.7 3.3-1.3 2.7-1.5-.5-.1-2.2-.5-3.7-.8-2.2-.5-2.8-1.2-2.8-3.4 0-5-1.7-5.8-2.5-1.2zM348.1 138.7c0 .6-.7 1.8-1.4 2.5-1 1.1-.9 1.6.5 3 1.5 1.5 1.8 1.5 1.8.3 0-.8.6-1.5 1.3-1.5.8 0 .9-.2.1-.8-.7-.4-1.4-1.6-1.7-2.7-.2-1.1-.5-1.5-.6-.8zM160.6 141.8c-.2.4 0 1.4.5 2.2.8 1.3 1 1.3 1.8 0 1-1.5.6-3-.9-3-.5 0-1.1.4-1.4.8zM138.1 143.8c-.9 1.7-.9 2.7 0 4.4l1.2 2.2.8-2.2c.5-1.2.5-3.2 0-4.4l-.8-2.2-1.2 2.2zM254.1 145.7c-.1 1.5-.7 2.3-1.8 2.3-1.7.1-1.7.2-.2 1.3.9.7 1.8 2.1 2.1 3.2.3 1.7.6 1.5 2-1.3.9-1.7 1.3-3.2.9-3.2s-1.3-1-1.9-2.3l-1.1-2.2v2.2zM371.1 146.7c-.1 1.5-.7 2.3-1.8 2.3-1.7.1-1.7.1 0 1.4.9.7 1.7 2.2 1.7 3.2.1 1.8.1 1.8 1.2-.1.6-1.1 1.9-2.5 2.7-3.2 1.4-1.1 1.4-1.2-.2-1.3-1 0-2.2-1-2.7-2.3l-.9-2.2v2.2zM415.2 149.7c-.8.8-.9 1.3-.2 1.3.5 0 1 .8 1.1 1.7 0 1.4.2 1.5.6.3.3-.8.9-1.7 1.3-2 .4-.3.2-1-.4-1.6-.9-.8-1.5-.7-2.4.3zM223.5 156.7c-.4 1.3-1.2 2.3-1.8 2.3-.6 0-.4.6.5 1.2.9.7 1.8 2.2 2.1 3.3.4 1.5.5 1.3.6-.8.1-1.8.6-2.7 1.8-2.7 1.5 0 1.5-.1.1-1.3-.9-.6-1.8-1.9-2.1-2.7-.4-1.1-.7-.9-1.2.7zM157.7 158.7c-.4 2-1.3 3.3-2.2 3.3-.8 0-1.5.4-1.5 1 0 .5.7 1 1.5 1s1.7 1.2 2.1 2.7c.9 4.5 1.2 5 1.3 2.3.2-3.1 1-4.4 3.6-5.5 1.9-.8 1.9-.9-.2-1.2-1.6-.3-2.5-1.4-3.1-3.6l-.8-3.2-.7 3.2zM394.1 157.4c-1 1.2-1 1.9 0 3.8l1.2 2.3 1-2.2c.6-1.3.6-2.7 0-3.8-.8-1.4-1.1-1.5-2.2-.1zM374 161.5c0 4.7.2 4.5-6.5 5.8-1.6.3-1.4.5 1 1.1 1.7.4 3.6.9 4.3 1.2.6.2 1.2 2 1.3 4.1 0 2.1.4 4.7.8 5.8.6 1.5 1 .5 1.5-3.8.4-3.2 1.3-6 1.9-6.2.7-.2 2.6-.7 4.2-1.1l3-.7-4.1-.9c-4.3-.9-5.4-2.4-5.4-7.6 0-1.2-.4-2.2-1-2.2-.5 0-1 2-1 4.5zM423 159.2c0 .9-.6 1.9-1.2 2.2-1 .5-1 .7 0 1.2.6.3 1.2 1.3 1.2 2.2 0 1.3.4 1.1 1.6-.6 1.4-2 1.4-2.4 0-4.4-1.2-1.7-1.6-1.9-1.6-.6zM410 161.2c0 .9-.4 1.8-.9 2-.5.1-.4.8.3 1.4 2 1.8 3.7-.8 2-3.1-1.2-1.6-1.4-1.6-1.4-.3zM192.7 165.7c-.6 2.1-1.6 3.3-3 3.6l-2.2.4 2.2.8c1.4.4 2.5 2 3.1 4.3.6 2.4 1 2.9 1.1 1.5.2-3.3 1.2-5.3 2.7-5.3 2.1 0 1.7-1.7-.5-2.3-1.2-.3-2.1-1.5-2.3-3.3l-.4-2.9-.7 3.2zM134.2 165.7c-.7.7-.8 1.3-.3 1.3s1.1.7 1.3 1.5c.2 1.3.5 1.3 1.4-.2 1.5-2.5-.5-4.7-2.4-2.6zM178 165.5c0 .8-.8 1.9-1.7 2.4-1.7 1-1.7 1 0 1.1 1 0 1.7.8 1.7 2 0 1.1.5 2 1 2 .6 0 1-.9 1-1.9 0-1.1.6-2.1 1.3-2.3.8-.2.4-1.1-1-2.5-1.6-1.6-2.3-1.8-2.3-.8zM267 173.4c0 6.6.4 8.1 3.3 13l3.2 5.6h13.3c11.7 0 13.3-.2 13.9-1.8.4-.9 1.9-3.7 3.3-6.2 1.7-2.8 2.6-5.6 2.4-7.5-.1-1.7-.3-4.7-.3-6.8l-.1-3.7h-39v7.4zM105.2 168.5c-.7.9-.8 1.5-.2 1.5.5 0 1 .7 1 1.5 0 2.1 1.7 1.9 2.2-.3.5-1.9 0-4.2-1-4.2-.4.1-1.3.7-2 1.5zM208.7 170.1c-2.7 1.5-1.6 6.9 1.4 6.9 1.3 0 3.9-3.1 3.9-4.5 0-2.1-3.2-3.5-5.3-2.4zM119.6 172.5c-.3.9-.6 2.7-.6 4 0 1.6-.7 2.5-2.5 2.9-3.2.8-3.2 2.6-.1 2.6 2.2 0 2.6.6 3.2 4.5.7 5.1 2.4 7 2.4 2.8 0-5.3 1-7.1 4.3-7.8l3.2-.6-3.5-1.2c-2.7-1-3.6-1.9-4.1-4.5-.8-4-1.5-4.8-2.3-2.7zM253.9 188.1c-1.3 7.2-2.6 13.5-2.9 14-.6.9-13-1-13-2.1 0-.4 2.4-1.7 5.3-3 6.5-3 8.7-4.8 8.7-7.1 0-2.9-2.9-3.8-18.2-5.8-7.9-1.1-15.5-2.2-17.1-2.6l-2.7-.7V196h3.8c2 0 8-.9 13.2-2 5.2-1.1 10.6-2 12-1.9 2.8 0 3.5-.4-9.2 5.4-4.1 1.9-5.8 3.2-5.8 4.6 0 2.4 3.6 3 20.3 3.9.5 0 .5.4.2 1-.3.5-.1 1 .4 1 .6 0 1 1.5.9 3.2l-.3 3.3 6.9.3c3.8.2 7.3-.1 7.8-.6.6-.6-.3-7-2.3-16.3-1.7-8.5-3.4-16.9-3.7-18.7-.8-6.2-1.9-4-4.3 8.9zM361 176.5c0 .8-.7 1.8-1.6 2.2-1.5.5-1.5.7 0 1.5.9.5 1.6 1.9 1.7 3.1 0 1.5.2 1.7.6.7.3-.8 1.2-2.3 2.1-3.3 1-1.1 1.1-1.7.4-1.7-.7 0-1.2-.6-1.2-1.4 0-.8-.4-1.8-1-2.1-.5-.3-1 .1-1 1zM427.1 179.2c-.1 1.6-.8 2.8-1.8 3.1-1.7.4-1.7.5 0 .6 1.1.1 1.7 1 1.8 2.8.2 2.5.2 2.5.6.5.3-1.3 1.1-2.6 1.9-2.9 1.3-.5 1.3-.7 0-1.7-.8-.6-1.6-2-1.9-3.1-.4-1.5-.5-1.4-.6.7zM94.2 180.1c-.8 1.2-.8 1.9-.2 1.9.5 0 1 .8 1.1 1.7 0 1.4.2 1.5.6.3.3-.8 1.1-1.8 1.6-2.2.7-.4.5-1.2-.5-2.1-1.3-1.3-1.6-1.3-2.6.4zM208 191.4c0 11.9.1 12.6 2 12.6 2.2 0 2.1.7 2.2-14.5 0-9.4-.1-10-2.1-10.3-2-.3-2.1 0-2.1 12.2zM451.2 183.5c-.7.8-.9 1.5-.4 1.5.6 0 1.3 1 1.7 2.2l.8 2.3.4-2.3c.2-1.2.9-2.2 1.4-2.2.6 0 .4-.7-.5-1.5-1.8-1.8-1.8-1.8-3.4 0zM406.2 186c-1 1.7-1 2.4.1 4.1 1.4 2 1.4 2 2-.2.3-1.1.2-2.9-.1-4-.7-1.8-.8-1.8-2 .1zM391.3 187.8c-.8 1.3-.8 2.4 0 3.8 1.5 2.9 1.5 2.9 3.5.4 1.8-2.3 1.8-2.4 0-4.2-2.2-2.2-2.1-2.2-3.5 0zM161.5 188.9c-.3.5-.1 1.2.5 1.6.5.3 1-.1 1-.9 0-1.8-.6-2.1-1.5-.7zM83.5 191.7c-.4 1.2-1.4 2.4-2.4 2.6-1.3.4-1.4.5 0 .6.8 0 2 1.3 2.6 2.8l1.1 2.8.1-2.7c.1-1.6.8-2.8 1.9-3.1 1.5-.4 1.5-.5 0-.6-.9 0-1.9-1.1-2.1-2.4l-.4-2.2-.8 2.2zM112 191.1c0 .5.5.7 1 .4.6-.3 1-.8 1-1.1 0-.2-.4-.4-1-.4-.5 0-1 .5-1 1.1z"/><path d="M274 220.3v25.8l5 19.9c2.8 11 5 20.4 5 21 0 .6-3.9 1-10.5 1H263v9.5c0 5.2-.3 9.6-.7 9.6-.5.1-6.5.3-13.5.5l-12.8.3V288h-7c-6.3 0-7-.2-7-2s.7-2 7-2h7v-26.1l13.8.3 13.7.3.3 12.7.3 12.8h8.5c7.7 0 8.5-.2 8-1.8-.3-.9-3.5-14.8-7.1-30.7-3.6-16-6.8-29.8-7.1-30.8-.5-1.5-2.2-1.7-17-1.7-9 0-16.4.2-16.4.5s-1.1 5.6-2.4 11.8c-1.4 6.2-3.7 16.8-5.1 23.7-1.5 6.9-2.9 13.2-3.2 14-.3.8-1.5-3.5-2.8-9.5-8.5-41.2-9.1-43.4-9.8-41.5-.3.8-2.8 13.3-5.6 27.8l-5 26.2-4.5 5.8-4.6 5.7 4.8.5 4.7.5.3 47c.2 46.2.2 46.9-1.7 45-1.1-1.2-4.4-10.6-8-23.2-8.1-28.1-7.6-26.8-9.1-21.3-9.3 34.3-12.1 43.5-14.1 45.6-2.9 3-3.9 3-3.9 0 0-2.8-1.2-3.2-8.4-2.8l-5.2.4.4 3.4c.2 1.9 0 3.4-.5 3.4-2.2 0-6.2-5.9-7.6-11-2.7-10.3-9.9-34.5-10.6-35.8-.7-1.1-4.4 11.1-10.3 33.6-1.9 7.4-2.6 8.7-7 12.8-2.6 2.4-4.8 4.7-4.8 4.9 0 .3 10.1.5 22.4.5h22.3l.6 8.2c.4 4.6.7 12 .7 16.5 0 7.7-.1 8.2-2.2 8.5-2 .3-2.3.9-2.3 5 .1 2.7.2 20.1.3 38.8l.2 34h4.5c2.9 0 4.5-.4 4.6-1.3 0-.6 1.5-18.2 3.3-39l3.2-37.8-3.3-4.9c-3.3-4.9-3.3-5.1-3.3-16.5V387h46v23.2l-3.5 4.8-3.6 4.9 4.1 38.2c2.2 21.1 4.3 38.5 4.6 38.8.5.5 87.6.2 88.1-.3.4-.4 6.3-71 6.3-75.1 0-2.9-.9-5.1-3-7.9-2.9-3.8-3-4.3-3-14.8V388h-7.4l3.4-3.5c3.4-3.5 6.7-5 3.7-1.7-1 1-1.7 2.2-1.7 2.5 0 .4 11 .7 24.5.7 14.1 0 24.5-.4 24.5-.9s-2.4-3-5.2-5.4c-2.9-2.5-5-4.8-4.7-5.1.3-.3 3.1 1.7 6.2 4.5l5.7 5.1v-45.1l4.8-.3 4.7-.3.3-8.9c.2-4.9.1-9.5-.2-10.1-.2-.7-1.7-1-3.5-.7-2.5.3-3.1.9-3.1 2.9 0 1.8-.5 2.4-1.7 2.1-1.2-.3-1.7-1.2-1.6-2.6.2-1.9-.2-2.2-3.7-2.2-3.6 0-4 .2-4 2.6 0 1.6-.5 2.4-1.2 2.2-.9-.3-1.4-4-1.6-12.6l-.3-12.2h3.6c1.9 0 3.5-.4 3.5-.9s-1.6-6.9-3.6-14.3c-2-7.3-4.4-16.4-5.4-20.1-1-3.8-2-7.1-2.3-7.3-.4-.4-4.5 14.5-4.9 17.6-.1.8-.4-3.7-.7-10-.8-15.1-.6-16 3.1-16 2.3 0 2.8-.4 2.4-1.8-.2-.9-3-12.2-6.1-25-3.2-12.8-6-23-6.4-22.7-.3.4-2.6 9.5-5.1 20.3l-4.5 19.7-3.7.3-3.8.3-.2-22.3-.3-22.3H274v25.8zM166.8 200.7c-.7 2.5.6 5.3 1.4 3.1.3-.7.2-2.2-.2-3.2-.6-1.9-.7-1.9-1.2.1zM454.7 200.5c-.7 1.6.8 2.9 2.3 2 1-.6.2-3.5-1-3.5-.4 0-1 .7-1.3 1.5zM136 204.5c0 .8-.8 1.9-1.7 2.4-1.6.9-1.7 1-.1 1.1.9 0 1.9 1 2.1 2.2l.4 2.3.8-2.2c.4-1.2 1.2-2.3 1.9-2.5.6-.2.2-1.2-1.1-2.5-1.6-1.6-2.3-1.8-2.3-.8zM207.7 207.7c-1.2 1.1-.8 4 .7 5.2 2.6 2.2 6.3-1 5-4.4-.6-1.5-4.5-2.1-5.7-.8zM423.5 208.1c-.4.6-.3 1.5.3 2.1.6.6 1.1.4 1.5-.6.7-1.8-.9-3.1-1.8-1.5zM443.8 208.2c.9.9 1.5.9 2.4 0 .9-.9.7-1.2-1.2-1.2s-2.1.3-1.2 1.2zM485 211.9c0 1.1.4 2.1.9 2.1 1.8 0 2.1-1.8.6-3-1.3-1-1.5-.9-1.5.9zM464.6 216.1c-1 1.2-1.4 2.4-.9 2.8.5.3 1.3 1.5 1.8 2.6l.8 2 .5-2c.2-1.1.9-2.3 1.6-2.8.8-.5.8-.9 0-1.5-.6-.4-1.3-1.3-1.5-2-.3-.8-1-.6-2.3.9zM83.7 218.2c-.4 1-.9 2.5-1.2 3.3-.2.8-1.5 1.5-2.7 1.6-2.1.1-2.1.1.5 1.1 1.9.7 2.7 1.7 2.7 3.4 0 3.3 1.8 3 2.2-.3.2-1.9 1-2.9 2.8-3.4l2.5-.7-2.7-.1c-2.3-.1-2.7-.6-3-3.4-.3-2.4-.6-2.8-1.1-1.5zM418.6 220.8c-.2.4-.1 1.4.3 2.1.6 1 1 .9 1.4-.3.6-1.6-.8-3.2-1.7-1.8zM106.4 225.8c-.8 1.3-.8 2 .1 2.9 1 .9 1.5.9 1.9-.3.3-.9.3-2.2-.2-3-.6-1.1-.9-1-1.8.4zM449 225.9c0 1.1.4 2.2.9 2.5 1.1.7 2-1.4 1.3-3.2-.7-1.9-2.2-1.4-2.2.7zM132.1 228.3c-.9 1.2-.8 1.6.3 2 1.9.7 2.7-.4 1.7-2.1-.6-1-1-1-2 .1zM487.2 230c-.7 1.2-.8 2-.2 2 .5 0 1 .9 1 2s.5 2 1 2c.6 0 1-.9 1-1.9 0-1.1.6-2.2 1.3-2.4 1-.4 1-.6 0-.6-.7-.1-1.3-.8-1.3-1.6 0-2.1-1.3-1.9-2.8.5zM44.9 238.9c-.4 4-.7 4.5-3.8 5.6l-3.4 1.1 3.4 1c3.1.9 3.4 1.3 3.7 5.2.3 4.4 2.2 5.9 2.2 1.8 0-4.2 1.8-7.6 4-7.6 1.2 0 1.8-.5 1.5-1-.3-.6-1.5-1-2.6-1s-2.1-.6-2.3-1.3c-.2-.6-.8-2.8-1.4-4.7l-.9-3.5-.4 4.4zM71 240.5c0 1.9-.8 2.9-3.2 3.9-2.5 1.1-2.8 1.5-1.2 1.5 2.8.1 4.4 2 4.4 5.3 0 4.2 1.8 3.4 2.2-1 .2-3 .7-3.8 2.6-4 2.6-.4 2-2.2-.9-2.2-1.4 0-1.9-.7-1.9-3 0-1.7-.4-3-1-3-.5 0-1 1.1-1 2.5zM439 242.1c0 .7-.8 1.8-1.7 2.5-1.7 1.2-1.7 1.3-.1 1.4.9 0 1.9 1 2.1 2.2l.4 2.3.8-2.3c.4-1.2 1.1-2.2 1.5-2.2.5 0 .3-1.1-.3-2.5-1.2-2.6-2.7-3.3-2.7-1.4zM501 243.3c0 3.8-1 5.7-3 5.7-3.1 0-3.3 1.8-.3 2.2 2.5.3 2.8.7 3.1 4.5.2 2.4.7 4.3 1.2 4.3s1-1.9 1.2-4.3c.3-3.8.6-4.2 3.1-4.5 3.5-.4 3.5-2 0-2.4-2.2-.2-2.9-1-3.4-3.6-.9-4.2-1.9-5.3-1.9-1.9zM106 243.9c0 .8-.8 2-1.7 2.7-1.7 1.3-1.7 1.3 0 1.4 1.1 0 1.7.8 1.8 2.2.1 2.1.2 2.1.6.3.3-1.1.8-2.2 1.2-2.5.4-.3.1-1.6-.6-3s-1.3-1.9-1.3-1.1zM478.4 244.4c-.8.8-.8 1.5 0 2.2.8.8 1.5.7 2.3-.2.9-.9.9-1.5 0-2.2-.8-.7-1.6-.6-2.3.2zM87.8 253.6c-.3 3.4-.7 4-3.3 4.5l-3 .5 3.2.8c2.9.7 3.3 1.2 4.1 5.9l1 5.2.1-4.8c.1-4.4.4-4.9 3.3-6.2l3.3-1.3-3-.4c-2.4-.2-3-.9-3.6-3.6-1-4.8-1.7-5-2.1-.6z"/><path d="M239 270v10.1l4.3-.3 4.2-.3v-19l-4.2-.3-4.3-.3V270zM250.9 260.2c-.1.5-.1 9.4 0 14.5l.1 5.3h8v-20h-4c-2.2 0-4 .1-4.1.2zM458 261.8c-1 1.1-1.1 1.7-.2 2 .7.2 1.2 1.1 1.3 2 0 1.2.3 1 1-.6 1.3-3.3-.1-5.5-2.1-3.4zM101.7 266.1c-.6 4.5-1.8 5.8-5.7 6-2.2.1-2 .3 1 1.2 4.2 1.3 5 2.3 5 6.2 0 1.6.5 3.7 1 4.5.7 1.1 1 .6 1-2 0-6.2.9-7.8 4.8-8.8l3.7-.9-3-.7c-1.6-.4-3.6-.9-4.2-1.2-.7-.2-1.3-1.6-1.3-3.1 0-5-1.7-5.8-2.3-1.2zM513.7 264c-.4 1.4-.8 3.6-.9 5-.2 1.4-1 2.6-1.8 2.6-5.4.5-5.4.6-2 1.8 3.1 1.1 3.5 1.7 3.8 5.2.4 4.6 2.2 7.2 2.2 3.2 0-4.8 1.6-7.5 5.2-8.3l3.3-.8-3.5-.6c-3.2-.6-3.6-1-4.6-5.6-1-4.3-1.2-4.6-1.7-2.5zM60 270c0 2.6-.4 3-2.6 3-1.4 0-2.3.4-1.9 1 .3.5 1.4 1 2.4 1 1.4 0 2.1 1.1 2.7 4.2l.8 4.3.4-3.8c.3-3 .9-4 3-4.9l2.7-1.1-2.5-.6c-1.8-.5-2.6-1.5-2.8-3.4-.4-3.7-2.2-3.4-2.2.3zM489.1 268.7c0 .6-.7 1.8-1.4 2.5-1.1 1.1-1 1.8.5 4.3 1.6 2.7 1.8 2.8 1.8.8 0-1.2.8-2.7 1.8-3.2 1.5-.9 1.6-1 0-1.1-.9 0-1.9-1-2.1-2.3-.2-1.2-.5-1.7-.6-1zM384.7 270.4c-1.1 2.8.4 4.7 3.2 4.4 2-.2 2.6-.8 2.6-2.8 0-2-.6-2.6-2.6-2.8-1.7-.2-2.9.3-3.2 1.2zM128.7 271.4c-1.4 1.5-1.3 5.6.2 5.6.3 0 .5 9.5.3 21.2-.2 16.2 0 21.3.9 21.9.7.4 1.7.5 2.1.3.5-.3.8-10.1.8-21.7-.1-11.7.2-22 .6-23.1.7-1.9-.4-4.7-2.3-5.3-.6-.2-1.8.3-2.6 1.1zM386 298.1c0 19.5.1 21 1.8 20.7 1.5-.3 1.7-2.2 2-21.1.2-20.2.2-20.7-1.8-20.7-1.9 0-2 .6-2 21.1zM391.4 278.4c-.3.7-.4 4.2-.2 7.7l.3 6.4 5.5-.2c4.7-.2 9.2-1 22.8-3.9 4.7-1 1.9 1.2-5.8 4.5-12.6 5.4-11.9 8.3 2.3 9.1 6.6.4 9.1.9 8.9 1.7-.2 1.5 1.7 1.7 3.6.5 3.3-2.2-3.7-6.2-10.7-6.2-4.1 0-2.8-1.9 3.4-4.8 7.2-3.5 9.4-6.2 6.9-8.6-.8-.9-1.6-1.6-1.8-1.6-2.5 0-30.4-4.4-32.2-5-1.8-.7-2.6-.6-3 .4zM27.6 279.5c-.3.9-.2 2.4.2 3.2.8 1.3 1 1.3 1.6-.2.3-.9.2-2.4-.2-3.2-.8-1.3-1-1.3-1.6.2zM73.6 278.9c-.4.6-.3 1.8.2 2.7.8 1.5 1 1.4 1.6-.2.8-2-.8-4.2-1.8-2.5zM134.8 279.7c-.2.4-.3 2.1-.2 3.8.1 1.6.2 4.7.3 6.7.1 3.8.1 3.8 4.5 3.8 2.4 0 8.9-.9 14.5-2.1 10.4-2.1 15-2.1 9.6 0-13 5.2-17 8-14.6 10.4.5.5 5.3 1.2 10.5 1.5 5.3.2 9.6.9 9.6 1.3 0 .5.9.9 2 .9s2-.7 2-1.6c0-1.8-5.7-4.4-9.7-4.4-6.3 0-5.9-1.8 1.2-5.2 13.8-6.6 11.8-9.1-10.1-12.3-8.8-1.3-16.6-2.6-17.5-3-1-.3-1.9-.3-2.1.2zM479.4 287.5c-.8 4.7-1.1 5-4.2 5.3-3.6.4-4.4 2.2-.9 2.2 3.2 0 4.7 1.8 4.7 5.9 0 6.4 1.8 6.9 2.5.8.7-5.4.9-5.7 4.1-6.3 4-.7 3.5-2.4-.7-2.4-2.5 0-2.9-.4-3-2.8-.1-1.5-.4-3.8-.8-5.2-.6-2.2-.9-1.8-1.7 2.5zM111.7 286.3c-.8 2.2.6 3.7 2 2.2 1-1 .9-1.6-.1-2.4-1-.9-1.5-.8-1.9.2zM239 295v10.1l4.3-.3 4.2-.3v-19l-4.2-.3-4.3-.3V295zM250.9 293.5c-.1 4.7-.2 9.1-.3 9.7-.1.8 1.5 1.4 4.2 1.6l4.2.3V285h-8l-.1 8.5zM89 288c0 .5.5 1 1 1 .6 0 1-.5 1-1 0-.6-.4-1-1-1-.5 0-1 .4-1 1zM60.5 294.8c-.4 3-1.3 5.5-1.9 5.7-.6.2-2.4.7-4.1 1.1l-3 .7 4.2 1c3.9.9 4.3 1.3 4.9 4.6.3 2 .9 4.7 1.4 6.1.7 2.1.9 1.8 1-2 .2-6.4 1.2-8.2 5.1-9.6l3.4-1.2-3.2-.1c-3.7-.1-4.4-1-5.9-7.1l-1.1-4.5-.8 5.3zM455 295.7c0 2.4-1.9 4.3-4.4 4.4-2.1.1-2.1.1-.1.6 3.3.8 4.5 2.4 4.6 6.2l.1 3.6 1-4.3c.6-2.9 1.6-4.6 3-5.1l2.2-.8-2.2-.5c-1.4-.4-2.2-1.4-2.2-2.6 0-1.2-.4-2.4-1-2.7-.5-.3-1 .2-1 1.2zM341.1 305.5c-2.8 4.7-5.1 9-5.1 9.6 0 1.2 19.3.9 20.6-.3.4-.4-.8-3.1-2.6-6s-4-6.5-4.7-8c-.8-1.5-1.8-3-2.3-3.3-.5-.3-3.2 3.3-5.9 8zM513.6 301.2c-.7 4.1-1.2 4.8-3.2 4.8-3.5 0-3.8 1.7-.4 2.4 2.7.5 3 .9 3 4.5 0 2.2.5 4.3 1 4.6.6.3 1-.4 1-1.7 0-4.6 1.2-6.6 4.3-7.5l3.2-1-3.2-.7c-2.7-.6-3.2-1.3-4-5.4l-1-4.7-.7 4.7zM73.7 298.7c-1.3 1.2-.7 2.3 1.3 2.3 1.1 0 2-.7 2-1.5 0-1.5-2.1-2.1-3.3-.8zM49.7 312c-.3.8-.7 2.6-.9 3.9-.2 1.7-1 2.5-2.7 2.8-3.6.5-3.6 1-.2 1.8 2.7.6 3.1 1.1 3.1 4 0 1.9.5 3.7 1 4 .6.4 1-.8 1-3 0-3.1.4-3.8 3.2-5l3.3-1.3-3-.4c-2.7-.3-3.1-.8-3.6-4.3-.3-2.4-.8-3.4-1.2-2.5zM18.8 318.2c-1 1-1.3 1.8-.8 1.8.6 0 1.5 1 2 2.2.9 2.3.9 2.3.9.1.1-1.2.5-2.3 1-2.5.5-.2.4-1-.2-1.8-1.1-1.4-1.4-1.4-2.9.2zM179.7 320.7c-.4.3-.7 1.7-.7 3 0 1.9.5 2.3 3 2.3 3.4 0 4.9-2.2 3-4.5-1.3-1.6-4.2-2-5.3-.8zM385 321.9c-1.4 2.6-1.3 2.9.9 4.1 3.9 2 6.9-1.8 3.9-4.8-1.8-1.8-3.6-1.5-4.8.7zM74 322.8c-1 1.1-1.1 1.7-.2 2 .7.2 1.2 1.1 1.3 2 0 1.3.3 1.2 1.1-.4.6-1.3.7-2.8.2-3.7-.8-1.3-1.1-1.3-2.4.1zM127.6 323.5c-.9 2.6 1.2 5.7 3.7 5.3 1.7-.2 2.2-1 2.2-3.3 0-2.5-.4-3.1-2.6-3.3-1.7-.2-2.9.3-3.3 1.3zM531.8 322.6c-.5.4-.8 2-.8 3.6 0 2.3-.4 2.8-2.5 2.8-1.4 0-2.5.4-2.5 1 0 .5.9 1 2 1 2.1 0 2.3.3 3.6 5.5.6 2.4.8 2.6 1.1 1 1.1-5.9 1.4-6.5 3.3-6.5 3 0 3.3-1.8.3-2.2-2.3-.2-2.9-.9-3.3-3.6-.3-1.9-.8-3-1.2-2.6zM469.1 324.6c0 1.1.3 1.4.6.6.3-.7.2-1.6-.1-1.9-.3-.4-.6.2-.5 1.3zM483.7 325c-.9 1.1-1.3 2-.8 2s1.1.8 1.3 1.7c.4 1.6.5 1.6 1.5-.2.6-1.1.8-2.8.4-3.8-.6-1.6-.8-1.6-2.4.3zM386.6 333c-.3 1.4-2.2 10.8-4.1 20.9-3.2 17.2-3.7 18.7-7.1 23l-3.5 4.6 15.2.3c8.3.1 15.4 0 15.7-.3.3-.3-1-2.4-2.9-4.7-3-3.9-3.7-6.1-7.5-23.8-4.8-22.9-4.9-23.4-5.8-20zM502.6 333.5c-.4 1.6-.9 3.6-1.2 4.2-.2.7-1.6 1.3-3.1 1.4l-2.8.1 3.3 1.4c2.7 1.2 3.2 1.9 3.2 4.9 0 4.7 1.8 4.5 2.2-.3.2-3 .7-3.8 2.6-4 1.2-.2 2.2-.7 2.2-1.2s-1-1-2.2-1.2c-1.8-.2-2.4-1.1-2.9-4.3l-.5-4-.8 3zM155.8 337.6c-.8 1.4-10.8 33-10.8 34.3 0 .7 3.8 1.1 11.5 1.1 6.3 0 11.5-.3 11.5-.8 0-2.1-11.7-35.5-12.2-34.6zM63.6 342.9c-.7 1.1.3 4.1 1.4 4.1 1.1 0 2.1-3 1.4-4.1-.3-.5-.9-.9-1.4-.9-.5 0-1.1.4-1.4.9zM80 344.9c0 3.5-1.2 5.1-3.9 5.2-2.6.1-2.5.1.7 1.5 2.8 1.2 3.2 1.9 3.2 5.2 0 2.7.3 3.3 1 2.2.5-.8 1-2.7 1-4.1 0-1.8.8-2.8 2.8-3.6l2.7-1.1-2.7-.1c-2.4-.1-2.8-.5-2.8-3 0-1.7-.4-3.3-1-3.6-.5-.3-1 .3-1 1.4zM29.7 349.4c-.6 1.5.1 2.6 1.5 2.6 1.1 0 1-2.7-.1-3.4-.5-.3-1.1 0-1.4.8zM49.9 353.8c-1.4 1.6-1.3 1.9.3 3.7 1.6 1.6 1.8 1.7 1.8.2 0-.9.6-1.7 1.3-1.7.8 0 .9-.3.1-.8-.6-.4-1.3-1.3-1.5-2-.3-.9-.8-.7-2 .6zM3.5 355.5c-.5 1.1-1.2 2.2-1.5 2.5-.4.3.1 1.8 1.1 3.5 1.7 2.7 1.9 2.8 1.9.8 0-1.2.8-2.7 1.8-3.2 1.5-.9 1.6-1 0-1.1-.9 0-1.8-1-2.1-2.3-.3-2.1-.4-2.1-1.2-.2zM58.4 364.1c-.8 3.8-1.4 4.5-4.4 5.5l-3.5 1.2 3.5.9c3.3.9 3.5 1.2 4.6 6.9l1 5.9.8-5c1.1-7.1 1.1-7.1 4.8-8l3.3-.7-3.7-1c-3.2-.8-3.8-1.4-3.9-3.6 0-1.5-.4-3.6-.8-4.6-.6-1.5-.9-1-1.7 2.5zM479.3 365.5c-.6 1.4-.7 2.5-.2 2.5.5 0 .9.8 1 1.7 0 1.4.2 1.5.6.3.3-.8 1.1-1.8 1.7-2.3.8-.5.8-.9 0-1.5-.6-.4-1.3-1.2-1.5-1.9-.2-.7-.9-.1-1.6 1.2zM37.2 372.5c-.7.9-.8 1.5-.2 1.5.5 0 1 1 1.1 2.2v2.3l1.1-2.3c.6-1.2 1.5-2.2 2-2.2s.3-.7-.6-1.5c-1.8-1.8-1.8-1.8-3.4 0zM74.1 371.9c-.1.8-.9 2-1.8 2.7-1.2.9-1.3 1.3-.5 1.4.7 0 1.7 1 2.2 2.2.9 2.3.9 2.3.9.1.1-1.2.7-2.4 1.4-2.6.8-.4.9-.8.1-1.4-.6-.4-1.4-1.5-1.7-2.3-.4-1.2-.6-1.2-.6-.1zM497.5 376c-1 1.1-1.3 2-.7 2 .7 0 1.2.7 1.2 1.5s.5 1.5 1 1.5c.6 0 1-.6 1-1.4 0-.8.4-1.6.9-1.8.5-.2.4-1.1-.3-2-1.2-1.7-1.4-1.7-3.1.2zM26 383.2c0 .9-.6 1.9-1.2 2.2-1 .5-1 .7 0 1.2.6.3 1.2 1.3 1.2 2.2.1 1.5.3 1.4 1.5-.2.8-1.1 1.5-2.3 1.5-2.6 0-.3-.7-1.5-1.5-2.6-1.2-1.6-1.4-1.7-1.5-.2zM518.5 383.4c-.8.7-.8 1.8 0 3.2l1.1 2.2 1.1-2.4c1.3-2.7-.4-5.1-2.2-3zM374.4 385.3c-.2.7-.3 11.1-.2 23.2l.3 22 13.3.3 13.2.3V384h-13c-9.7 0-13.2.3-13.6 1.3zM298 397.5v9.5h42v-19h-5.5c-5.4 0-5.5 0-5.5 3 0 2.5-.4 3-2.5 3s-2.5-.5-2.5-3c0-3-.1-3-5.5-3-5.5 0-5.5 0-5.5 3.1 0 2.6-.3 3-2.2 2.7-1.7-.2-2.4-1.1-2.6-3.1-.3-2.5-.6-2.7-5.3-2.7H298v9.5zM56.1 390.7c-.1 1.5-.7 2.3-1.8 2.3-1.7.1-1.7.1 0 1.4.9.7 1.7 1.9 1.7 2.6 0 .9.8.5 2.1-.9 1.8-1.9 1.9-2.4.6-3.4-.8-.7-1.7-1.9-2-2.7-.4-1-.6-.7-.6.7zM104 399.5c0 9.8.2 10.7 2.8 14.4l2.7 4 21.3.1H152v-29h-4.5c-4.1 0-4.5.2-4.5 2.4 0 2-1.6 3.6-3.6 3.6-.2 0-.4-1.4-.4-3 0-2.9-.1-3-5-3s-5 .1-5 3c0 2-.5 3-1.5 3s-1.5-1-1.5-3.1c0-3-.1-3-4.7-2.7-4.4.3-4.8.5-5.1 3-.5 3.9-3.2 3.7-3.2-.2 0-2.9-.2-3-4.5-3H104v10.5zM162 398.5v9.5h41.9l.3-9.5.3-9.5H193v3.1c0 2.6-.3 3-2.2 2.7-1.7-.2-2.4-1.1-2.6-3.1-.3-2.5-.6-2.7-5.2-2.7-4.6 0-4.9.2-5.2 2.7-.2 2-.9 2.9-2.5 3.1-2 .3-2.3-.1-2.3-2.7 0-3.1 0-3.1-5.5-3.1H162v9.5z"/><path d="M347 394.4c0 1.8-.6 2.5-2.2 2.8-2 .3-2.4 1-2.8 6.3-.3 3.9-1.3 7.3-2.8 9.8l-2.4 3.7 17.4-.2 17.3-.3.3-12.3.3-12.2H367c-4.7 0-5 .2-5 2.5 0 2.1-.5 2.5-3 2.5s-3-.4-3-2.5c0-2.3-.4-2.5-4.5-2.5s-4.5.2-4.5 2.4zM478.3 397.5c-1 1-.9 1.4.2 1.9 1.7.6 2.6-.5 1.7-2.1-.5-.8-1.1-.7-1.9.2zM4 401.7c0 .6-.3 1.8-.6 2.7-.4 1.2 0 1.6 1.5 1.6 1.2 0 2.1-.3 2.1-.8-.1-1.2-3-4.7-3-3.5zM34.6 404.5c-.6 1.7.2 4.5 1.4 4.5.4 0 1-.7 1.4-1.5.6-1.7-.2-4.5-1.4-4.5-.4 0-1 .7-1.4 1.5zM505.2 405.7c-1.1 1.1-1 1.7.3 3.5 1.2 1.8 1.5 1.9 1.5.6 0-.9.6-1.8 1.2-2 1-.4.9-.8-.2-2-1.3-1.3-1.8-1.3-2.8-.1zM73.1 408.3c-.6.7-.6 1.8-.1 2.6.7 1.2 1 1.2 2.3 0 1.1-1.2 1.2-1.7.1-2.6-.9-.9-1.5-.9-2.3 0z"/><path d="M315.8 408.8c-15.3.2-20.3.9-17 2.4.4.1 1.9 2.1 3.4 4.3l2.6 4-2.4 29c-1.3 15.9-2.7 33.2-3.2 38.3-.4 5.1-.6 9.5-.3 9.7.6.7 40.6.6 41.3 0 .2-.3.1-3.3-.3-6.7-.4-3.5-2.2-20.8-4-38.5l-3.2-32.1 3.6-5.1c2.1-2.8 3.4-5.1 2.9-5.2-3.5-.4-8.1-.4-23.4-.1zM181.3 409.7c-10.1.2-18.3.7-18.3 1.1 0 .5 1.4 2.7 3.1 5l3.1 4.3-3.1 37.2c-1.7 20.5-3.1 38-3.1 38.9 0 1.7 1.6 1.8 20.4 1.8 11.3 0 20.7-.3 20.9-.8.3-.4-1.3-18-3.4-39.1l-3.9-38.4 3.5-4.7c2.9-4 3.2-4.9 1.9-5.4-.8-.3-1.9-.5-2.2-.4-.4.2-8.9.4-18.9.5z"/><path d="M335 420.2c0 2.7 6.8 68.9 7.5 73.5l.6 3.2 29.2-.6c16.1-.3 29.4-.7 29.6-.9.2-.2-.4-7.5-1.3-16.1-.9-8.7-1.9-18.3-2.2-21.3-1-10.8-.1-10-11.4-10-5.5 0-10-.1-10-.3 0-.1-1.1-3.3-2.5-7.1-1.9-5.2-2.5-8.9-2.5-14.7V418h-37v2.2zM48.8 421.6c-.8 3 .4 4.5 2 2.8.7-.8.8-1.4.3-1.4s-1.1-.8-1.3-1.8c-.3-1.4-.5-1.4-1 .4zM111.6 421.2c-.2.7-1.6 16.4-3 34.8-1.5 18.4-2.9 35.4-3.2 37.8l-.6 4.2H148v-78h-18c-13.6 0-18.2.3-18.4 1.2zM493 431.9c0 .8-.8 2-1.7 2.7-1.7 1.3-1.7 1.3 0 1.4 1.1 0 1.7.8 1.7 2.2.1 2.2.1 2.2 1.2.3.6-1.1 1.5-2.2 1.9-2.5.4-.3-.1-1.7-1.1-3-1.2-1.5-2-1.9-2-1.1z"/><path d="M375.5 432.9c-.5 1 3 10.9 4.5 12.4.4.5 4.6.6 9.2.2l8.5-.7 1.6-4.7c3-8.3 3.4-8.1-10.7-8.1-6.9 0-12.7.4-13.1.9z"/></svg>