<svg version="1" xmlns="http://www.w3.org/2000/svg" width="682.667" height="682.667" viewBox="0 0 512.000000 512.000000"><path d="M268.6 33.6c-2 2-.5 5.4 2.4 5.4 2.5 0 3.9-4.8 1.9-6.1-1.9-1.2-2.5-1.1-4.3.7zM269.4 42.1c-.7 1.2-.6 21.8.2 23 .3.5 1 .6 1.7.3 1.9-.7 2-23.1.1-23.8-.7-.3-1.6 0-2 .5zM274.5 50.3v7.2l5.5-.2c3-.1 9.3-1.1 13.9-2.2s8.8-1.8 9.4-1.4c.5.3-2.6 2.1-6.9 3.9-7.6 3.3-9.7 4.9-9.1 6.8.4 1.1 2.6 1.5 9.7 1.7 8 .2 11.6.9 9.9 2-1.1.7-.9.9.8.9 5.1 0 3.1-4.9-2.4-5.7-1.5-.2-3.7-.6-4.8-.8-1.1-.2-2.3-.4-2.7-.4-1.2-.1-.9-2.1.2-2.1 3.5 0 12.9-6 13-8.2 0-1.4-5.1-4.1-8.3-4.3-1.8-.2-3.9-.5-4.7-.8-.8-.3-2.2-.5-3-.5-1.3 0-5.1-.4-14.5-1.7-1.1-.1-2-.3-2-.4 0-.2-.9-.4-2.1-.6-1.9-.4-2 0-1.9 6.8zM268 69.1c-2.2 4 3.3 6.9 5.7 2.9 1.1-1.6.9-2.1-.9-3.5-2.9-2-3.5-1.9-4.8.6zM270 78.4c0 .3-2.2 13.3-5 28.8-6.2 35.8-6.2 35.6-6.5 39.8-.2 1.9-.4 3.5-.5 3.5-.1 0-.4 1.2-.6 2.7l-.5 2.8h15.7l.3-3.3c.4-4 .9-7.2 1.1-7.2.3 0 1.8-8.1 2.6-14.4.2-1.9.7-3.8 1.1-4.4.9-1.4.8-6.3-.2-11.7-.5-2.5-1-5.6-1.1-7-.1-1.4-.3-2.5-.4-2.5-.1 0-.3-1.4-.5-3-.1-1.7-.7-4.7-1.3-6.8-.6-2.1-.8-4.5-.5-5.3.3-.8.1-1.4-.5-1.4-.5 0-1-1.2-1.1-2.8 0-1.5 0-3.7-.1-4.9 0-1.8-2-4.6-2-2.9zM290 97.7c0 .8.5 1.3 1.2 1.1 1.8-.6 2.1-2.5.3-2.5-.8 0-1.5.7-1.5 1.4zM227.2 97.7c.5 2-1.5 5.3-3.3 5.3-1 0-1.9.4-1.9 1 0 .5.9 1 1.9 1 2.1 0 3.1 1.8 3.1 5.8 0 2.1.2 2.4 1 1.2.5-.8 1-2.7 1-4.3 0-2 .5-2.7 1.9-2.7 1.1 0 2.3-.5 2.6-1 .4-.6-.5-1-1.9-1-2.5 0-3.1-1.2-2.7-4.8.1-.6-.3-1.2-.9-1.2-.5 0-.9.3-.8.7zM212.8 98.6c-.5.4-.8 1.8-.8 3 0 1.7-.7 2.4-2.7 2.6l-2.8.4 2.8 1.2c1.9.8 2.7 1.9 2.7 3.6 0 1.4.5 2.8 1.1 3.2.7.4 1-.4.7-2.2-.2-2.3.2-3.1 2.7-4.3l3-1.5-2.5-.6c-1.7-.4-2.6-1.4-3-3.4-.3-1.5-.8-2.4-1.2-2zM249 102c0 1.1-.4 2-1 2-.5 0-.2 1.3.7 2.9l1.7 2.9 1.4-2.6c.9-1.8 1-2.8.3-3-.6-.2-1.1-1.2-1.1-2.3 0-1-.4-1.9-1-1.9-.5 0-1 .9-1 2zM307.5 104c-.4 1.2-.3 2.6.3 3.2 1.2 1.2 2.3-2.5 1.2-4.2-.6-.9-1-.6-1.5 1zM321 107.2c0 .9-.7 1.8-1.5 2.2-1.3.5-1.2.9.6 2.7 1.1 1.1 2.1 1.9 2.2 1.7.1-.2.7-1.2 1.3-2.3.9-1.6.7-2.4-.8-3.9-1.5-1.6-1.8-1.7-1.8-.4zM345 110.5c0 1.5.4 2.4 1 2 .6-.3 1-1.2 1-2s-.4-1.7-1-2c-.6-.4-1 .5-1 2zM185.3 113.9c-.8 1.3-.7 2.2.6 4l1.7 2.2-.1-3.5c0-4.2-.7-5.1-2.2-2.7zM236.2 116c-1.5 2.5-1.5 2.7.1 3.3.7.3 1.3-.6 1.4-2.4.3-3.4.2-3.5-1.5-.9zM158 118.9c0 1.1.3 2.7.6 3.6.6 1.4.8 1.3 1.8-.7.9-1.8.9-2.6 0-3.6-1.7-1.7-2.4-1.5-2.4.7zM280.8 120.2c-.3 5.6-.4 6.3-1 7.3-.5 1-1.9 8.4-2.4 13.5-.1 1.4-.3 2.5-.4 2.5-.1 0-.3.7-.5 1.5s-.6 2.8-1 4.5c-1.3 6.2-1.7 6 7.3 6.3 5.7.2 8.2-.1 7.7-.8-.8-1.3-1.9-6.9-3.1-16-.3-2.5-.9-4.7-1.2-5-.4-.3-.8-1.9-1-3.5-1-10.6-4-17.6-4.4-10.3zM303.4 118.4c-.8.9-.8 1.7.1 2.9 1.3 1.8 3.1 2.4 2 .8-.3-.5-.1-1.2.4-1.6 1-.6.4-3.5-.8-3.5-.3.1-1.1.7-1.7 1.4zM199.5 119c.4.6 1.1.8 1.6.5 1.4-.9 1.1-1.5-.7-1.5-.8 0-1.2.5-.9 1zM339.1 121c-.2 3.2-1.1 4.6-3.6 5.3-1.8.4-1.8.5.2.6 1.5.1 2.4.9 2.7 2.3.3 1.3.7 3.2.9 4.3.3 1.1.5.1.6-2.3.1-3.6.4-4.2 2.4-4.3 1.6-.1 1.8-.2.5-.6-1-.2-2.1-1.7-2.4-3.1-.9-4.4-1.2-4.8-1.3-2.2zM215.9 121.1c-.1.8-.2 2.1-.3 2.9 0 .8-1.2 1.7-2.5 2l-2.4.5 2.8 1.3c2.1 1 2.6 1.8 2.2 3.7-.3 1.8 0 2.5 1.1 2.5 1 0 1.3-.7.9-2.6-.4-2.2.1-2.8 2.7-4 2.6-1.1 2.7-1.3.9-1.4-1.9 0-5.2-3.7-4.4-4.8.2-.2 0-.6-.3-1-.3-.3-.7.1-.7.9zM372.7 121.3c-.9 2.3.8 4.1 2.2 2.4.9-1.1.8-1.7-.3-2.6-1-.9-1.5-.8-1.9.2zM169.2 129.1c-.2 5.8-1.5 7.9-4.8 7.9-1.3 0-2.4.4-2.4 1 0 .5 1 1 2.3 1 2.7.1 5.6 2.1 5.5 4.1-.2 3.6.5 9.3.9 7.1.2-1.2.7-2.2 1.1-2.2.4 0 .7-1.9.7-4.2 0-3.9.2-4.3 3.3-5.2 3.8-1 4.4-2.8.7-2.2-3 .6-5.9-1.9-5.2-4.5.3-1-.1-2.6-.8-3.5-1.1-1.6-1.3-1.6-1.3.7zM359.3 128.6c-.3.8-.1 2 .6 2.7.8.8 1.1.4 1.1-1.6 0-3-.7-3.5-1.7-1.1zM328.4 132.4c-.8 1.8-.8 2.8.3 4.2 1.2 1.6 1.3 1.6 1.3.1 0-.9.6-1.7 1.3-1.7.8 0 .9-.2.1-.8-.7-.4-1.3-1.5-1.5-2.4-.3-1.5-.6-1.4-1.5.6zM377.5 131c.4.6.2 1.7-.5 2.5-.8.9-.8 2-.2 3.2.6 1 1.1 2.2 1.2 2.8.1.5.4 1.1.6 1.2.2.2.2 0-.1-.4-.3-.3.2-1.7 1-3 .9-1.3 1.1-2.3.5-2.3-.5 0-1-1.1-1-2.5s-.5-2.5-1.1-2.5c-.5 0-.7.5-.4 1zM198.3 132.2c.1 4.3-.5 6-2.3 6.5-2.6.7-2.6 1.9 0 2.6 1.1.3 2 .9 1.8 1.4-.1.4.2 2.3.6 4.2.6 2.6 1 3.1 1.7 1.9.5-.8.6-2.5.4-3.7-.3-1.8.4-2.6 3.8-4.1 4.1-1.9 4.1-2 1.2-2-3.8 0-5.3-1-4.9-3.4.3-2.2-.5-4.6-1.6-4.6-.4 0-.8.6-.7 1.2zM152.6 133.7c-.9.9-.7 3.3.3 3.3 1.2 0 2.2-2.8 1.2-3.4-.5-.3-1.1-.3-1.5.1zM130.6 136.5c-.9 1.4-1.2 2.5-.6 2.5.5 0 1 .7 1 1.6 0 .8.5 1.2 1 .9.8-.5 1.2-7.5.4-7.5-.1 0-.9 1.1-1.8 2.5zM240 138.2c0 .9-.6 1.9-1.2 2.2-1 .5-1 .7 0 1.2.6.3 1.2 1.2 1.2 2 0 2.1 1.4 1.7 2.6-.9.8-1.8.6-2.6-.8-4.2-1.5-1.6-1.8-1.6-1.8-.3zM351 139.2c0 1-.8 1.8-1.7 1.8-1.7.1-1.7.1 0 1.4.9.7 1.7 2.2 1.7 3.2.1 1.8.1 1.8 1.2-.1.6-1.1 1.9-2.5 2.7-3.2 1.4-1.1 1.4-1.2-.1-1.3-.9 0-2.2-.8-2.7-1.8-1-1.6-1-1.6-1.1 0zM392.7 141.7c-.3.5 0 1.3.7 1.9.8.8 1.5.7 2.3-.2.9-.9.9-1.4-.3-1.8-2-.8-2.2-.8-2.7.1zM210.8 148.9c-1.3 1.6-1.4 2-.3 2.5.7.2 1.5 1.5 1.8 2.8.4 2 .4 1.9.6-.5 0-1.6.5-2.6 1-2.2.5.3 1.3 0 1.7-.7.4-.7.3-.9-.1-.5-.5.4-1.4-.1-2-1.3-1-2-1.1-2-2.7-.1zM149.9 148.5c-.1.3-.3.9-.4 1.5-.1.5-.3 1.4-.4 2 0 .5-.8 1-1.6 1s-1.5.4-1.5 1c0 .5.4 1 .9 1s1.3.9 1.6 2c.8 2.5 2.5 2.6 2.5.1 0-1 1-2.2 2.3-2.6l2.2-.8-2.2-.4c-2-.4-2.8-2-2.4-4.6.1-.8-.8-1-1-.2zM373.3 148.8c-1.3.8-.7 5.2.7 5.2 1.3 0 2.1-3 1.2-4.5-.4-.8-1.3-1.1-1.9-.7zM354 152.9c0 4.1-1 5-5.8 5.2-2.3.1-2.1.3 1.3 1.3 3.8 1.2 4 1.5 4.5 5.9.7 5.5 2 7.4 2 2.9 0-1.8-.1-3.3-.2-3.5-.1-.1.4-1.2 1.1-2.5.7-1.3 2.1-2.2 3.6-2.2 1.3 0 2.7-.5 3-1 .3-.6-.3-1-1.4-1-3.7 0-5.1-1.2-5.7-5.1-.8-5-2.4-5-2.4 0zM399.2 152c-.7 1.2-.8 2-.2 2 .5 0 1 .8 1 1.7 0 1.4.3 1.3 1.6-.6 1.4-1.9 1.4-2.5.3-3.7-1.2-1.2-1.6-1.1-2.7.6zM388 152.2c0 .9-.4 1.8-.9 2-.5.1-.4.8.3 1.4 2 1.8 3.7-.8 2-3.1-1.2-1.6-1.4-1.6-1.4-.3zM168.4 155.7c.3.6-.1 1.9-1 2.7-1.3 1.4-1.4 1.6 0 1.6.9 0 1.3.7 1.1 2-.2 1.1 0 2 .6 2 .8 0 1-.7.8-2.7 0-.4.5-1 1.3-1.3 1-.4.7-1.2-1.1-3-1.3-1.4-2.1-2-1.7-1.3zM182 157.5c-.7.8-.9 1.5-.4 1.6.5.1-.2.5-1.6.9-2.4.8-2.5.8-.3 1.5 1.1.4 2.4 1.7 2.8 2.8l.6 2.2.9-2.3c.5-1.2 1.4-2.2 2-2.2 1.8 0 1.1-1.8-.9-2.5-1.2-.4-1.8-1.2-1.4-2.1.7-1.8-.1-1.8-1.7.1zM127.2 159c.9 1.4 1.4 1.6 2 .7 1.3-2 .9-2.7-1.2-2.7-1.8 0-1.9.3-.8 2zM252.9 158.2c-.4 5.1-.3 13.8.2 13.8.4 0 1.2 1.3 1.9 3 .7 1.6 1.6 3 2.1 3s.8.3.8.7c-.4 2.6.9 2.9 13.1 3.1 11.7.2 13.1.1 13.7-1.5.4-1 1.7-3.4 2.9-5.4 1.9-3 2.3-5 2.1-10.8l-.1-7.1h-18.3c-13.9 0-18.3.3-18.4 1.2zM99.7 159.2c-.2.7 0 2.2.6 3.3 1 1.9 1 1.9 1.7 0 .8-2.2.3-4.5-1-4.5-.5 0-1 .6-1.3 1.2zM197.7 161.2c-2.2 1.2-2.2 4.4 0 5.6 1.1.7 2.2.5 3.5-.8 3.1-2.8.2-6.9-3.5-4.8zM112.9 164.6c-.1 1.6-.1 3.2 0 3.6 0 .4-1 1-2.4 1.4-2.5.6-3.5 2.3-1.5 2.5 2.5.3 2.9.4 3.3.9.3.3.7 2 1 3.9.3 1.8 1 3.8 1.6 4.4.7.7.9.4.6-1.1-.6-3.5 1-7.7 3-7.7 1 0 2-.6 2.3-1.3.2-.7 0-1.2-.5-1-1.9.5-5.2-2.3-4.8-4.1.2-1.1-.3-2.5-1.1-3.2-1.2-.9-1.4-.6-1.5 1.7zM241.5 170.7c-.7 4.6-1.2 7.3-2 11.8-.2 1.1-.4 2-.5 2-.1 0-.3 1.5-.5 3.3-.2 1.9-.5 3.6-.7 3.8-.3.2-3.2-.1-6.6-.7-5.1-.9-6.1-1.4-5.1-2.5.6-.8 1.5-1.1 2-.8.5.3.9 0 .9-.5 0-.6.9-1.1 2-1.1s2-.5 2-1.1c0-.5.4-.8.9-.5 1.3.9 5.2-3.9 4.6-5.7-.9-2.2-2-2.5-18.1-4.8-8-1.1-15.1-2.2-15.9-2.5-.8-.4-1.5-.2-1.6.2-.1 1.2-.1 11.7 0 13 .1 1.1 4.5 1.1 11.1-.1 1.9-.3 4.4-.7 5.5-.9 1.1-.2 3.4-.6 5-1 5.7-1.2 7.5-1.5 7.5-1s-8.5 4.5-10.4 4.8c-2.4.4-5.6 3.2-5.6 4.8 0 1 1 2 2.3 2.2 1.7.4 12.8 1.4 17 1.6.5 0 .5.4.2 1-.3.5-.2 1 .4 1 1 0 1 1.8-.2 3.7-1.1 1.8.8 2.5 7.4 2.8 3.7.2 6.2-.2 6.9-1 .7-.8.2-4.8-1.6-13.1-1.4-6.5-3.1-14.5-3.7-17.7-.6-3.1-1.5-5.7-1.8-5.7-.4 0-1 2.1-1.4 4.7zM341.5 167c.3.6-.1 1.3-1 1.6-1.2.5-1.3.9-.5 1.4 1 .6 1.4 1.7 1.9 5 .1.3.8-.8 1.7-2.5 1-1.9 1.1-3.1.5-3.3-.6-.2-1.1-1-1.1-1.8s-.5-1.4-1.1-1.4c-.5 0-.7.5-.4 1zM404.1 169.2c0 1.6-.8 2.8-1.8 3.1-1.7.4-1.7.5 0 .6 1.1.1 1.7 1 1.8 2.8.1 2.1.2 2.3.6.8.3-1.1 1.2-2.6 2.1-3.3 1.4-1.1 1.4-1.2 0-1.2-1 0-1.8-1-2.1-2.8l-.4-2.7-.2 2.7zM89 170.5c-.9 1-.9 1.5-.1 1.5.6 0 1.1.8 1.2 1.7 0 1.4.2 1.5.6.3.3-.8 1-1.8 1.5-2.1.5-.3.3-1.1-.5-1.8-1.1-.9-1.7-.8-2.7.4zM197 181.1c0 11.2.1 11.9 2 11.9 1.8 0 1.9-.7 1.9-10 0-5.5.3-10.4.6-10.9.6-1-1.1-2.4-3.2-2.7-1-.2-1.3 2.7-1.3 11.7zM427.2 173.6c-.7.8-.8 1.4-.2 1.4.5 0 1 .6 1 1.4 0 2.6 1.8 2.7 2.2.1.6-3.1-1.2-4.8-3-2.9zM384.2 176.4c-.7 1.6-.8 2.6-.2 2.6.6 0 1 .8 1.1 1.7 0 1.4.2 1.3.9-.5.5-1.2.6-3.1.2-4.3-.8-2-.8-2-2 .5zM370.4 177.7c-.8 1.3-.8 2.5-.1 4.1l1 2.2 2.3-2.1c2.2-2 2.2-2.1.3-4-2.3-2.3-2.2-2.3-3.5-.2zM152.5 178.9c-.3.5-.1 1.2.5 1.6.5.3 1-.1 1-.9 0-1.8-.6-2.1-1.5-.7zM79 181.1c0 .7-.8 1.8-1.7 2.5-1.7 1.3-1.7 1.3 0 1.4 1.1 0 1.7.8 1.7 2.2 0 1.8.2 2 .9.8.6-.8.7-1.8.5-2.2-.3-.4.2-.8 1-.8.9 0 1.6-.4 1.6-1 0-.5-.7-.7-1.5-.4-1 .4-1.3 0-1-1.5.2-1.2 0-2.1-.6-2.1-.5 0-.9.5-.9 1.1z"/><path d="M259.7 183.7c-.3.5-.5 11.6-.5 24.8v24l4.9 19.3c2.7 10.7 4.7 19.7 4.5 20.1-.3.4-4.7.7-9.8.6l-9.3-.1-.5 9.1-.5 9h-2.7c-1.6-.1-2.8.2-2.8.5s-4.4.5-9.7.4h-9.8l-.1-8.7c0-4.8-.4-9-.8-9.4-.4-.4-3.3-.7-6.4-.8-4.6 0-5.7-.4-6-1.8-.3-1.5.5-1.7 6.5-1.7h6.8l-.1-12.5-.1-12.5h12.1c6.7 0 12.7.4 13.4.8.9.6 1.2 3.3 1.1 8.8v11.6l.1 3.8h8.1c7.2 0 8-.2 7.5-1.8-.2-.9-1.2-4.9-2.1-8.7-.9-3.9-2.2-9.5-3-12.5-.8-3-1.6-6.9-1.8-8.5-.3-1.7-.9-4.1-1.4-5.5-.5-1.4-.9-3.2-.8-4 .1-.8-.1-2-.4-2.5-.3-.6-.6-1.5-.6-2-.4-3.7-1.9-9.6-2.6-10.1-.4-.2-.6-1.1-.2-1.9 1.3-3.6-1.3-4.3-16.2-4.3-15.4 0-16.7.4-17.1 5.2-.3 2.5-1.3 7.4-2 9.8-.3 1-.7 2.9-1 4.3-.5 3-1.4 7.6-1.8 9-.1.5-1.1 5.2-2.1 10.2-1.1 5.1-2.2 9.3-2.6 9.3-.6 0-2.1-7.6-2.4-12-.1-.8-.5-2.5-.9-3.7-.9-2.7-1.7-6.8-2.1-10.3-.2-1.4-.4-2.5-.5-2.5-.2 0-.4-.9-.6-2-.4-2.6-1.2-6-1.4-6-.1 0-.4-1.1-.6-2.5-.2-1.4-.6-3.4-.8-4.5-.2-1.1-.4-2.8-.5-3.8 0-.9-.5-1.7-.9-1.7-.7 0-6.7 28.4-7.6 36-.2 1.4-.6 3.2-.9 4-.3.8-1.1 4-1.7 7-.7 3.5-2.1 6.8-4 9-1.6 1.9-3.4 4-4 4.7-1.7 2-1.2 2.3 3.5 2.3h4.5v5.2c.1 20.1.2 77 .1 80.1-.1 3.4-.3 3.7-1.6 2.4-.7-.8-1.7-2.8-2.1-4.3-.4-1.6-.9-3.4-1.3-3.9-.3-.6-.6-1.6-.7-2.3-.1-.7-2.6-9.2-5.5-18.8-5.4-18-5.8-18.6-7.4-10.6-.8 3.8-1.3 5.7-1.5 5.7-.1 0-.3.7-.5 1.5s-1.3 4.9-2.4 9l-4 14.9c-1.2 4.7-2.9 8.3-4.5 9.9l-2.5 2.5-.6-2.6c-.8-2.9-1.9-3.3-8.4-2.9l-4.7.4.4 3.6.5 3.6-3.4-2.8c-1.8-1.6-3.4-3.3-3.5-4-.2-.6-.6-2.2-.9-3.6-.3-1.4-.7-3-.8-3.5-.2-.6-.6-1.6-1-2.3-.5-.6-.6-1.2-.2-1.2.3 0 .1-1-.6-2.1-.6-1.2-1.3-3.1-1.4-4.3-.5-3-5.5-19.8-6.4-21.4-.7-1.3-6.8 18.2-8.5 27.3-.1.5-.5 1.6-.9 2.2-.5.7-.5 1.7-.2 2.3.3.5.2 1-.4 1-.5 0-.8.8-.6 1.7.1 1-.4 2.9-1.2 4.2-2 3.2-7.6 8.6-8.6 8.3-.4-.1-.7.2-.7.8 0 1.3-1.2 1.2 22.5 1.4l20 .1.3 4.5c1 13.7 1.1 26 .2 26.1-.6.1-1.5.2-2.2.3-1.6.1-1.4 72.6.2 73.6.6.4 2.1.5 3.3.4 1.2-.1 2.7-.3 3.4-.3.7-.1 1-1.1.7-2.6-.2-1.4-.1-2.5.4-2.5.4 0 .7-2.4.6-5.3-.1-2.8.1-5.5.3-5.9.2-.4.6-3.8.8-7.5.2-3.8.7-9.1 1-11.8.3-2.8.5-5.7.6-6.5 0-1.4 1.7-21.8 2.3-28.5.2-1.9-.6-4.2-2.1-6.2-1.3-1.7-2.3-3.6-2.3-4.2 0-.6-.4-1.1-.8-1.1s-.8-5.1-.7-11.2v-11.3l21.8-.1 21.7-.1v10.9c0 10.8 0 10.9-3.6 16-2.6 3.9-3.4 5.8-2.9 7.7.3 1.3.8 4.7 1 7.5.8 11.5 6.5 61.9 7 62.4.2.2 3.2.3 6.7.2 3.5-.1 22.1-.2 41.4-.3l35.2-.2.5-4.5c.3-2.5 1.8-19 3.3-36.7 2.5-28.6 2.6-32.5 1.3-35-.7-1.5-2-3.3-2.8-3.9-1.5-1.2-1.9-4.7-2-16.2l-.1-7.2h-7l3.2-3c1.7-1.7 3.6-3 4.2-3 .6 0 .2.7-.8 1.5-1.1.8-1.7 1.7-1.5 2 .4.4 41.3.9 45.9.5.9 0-.8-2.1-4-5-3-2.7-5.2-5.1-4.9-5.4.3-.3 2.8 1.5 5.6 3.9 2.8 2.5 5.3 4.5 5.5 4.5.2 0 .3-9.3.3-20.8v-20.7l4.5-.5 4.5-.5.3-8.4c.2-4.6.1-9-.2-9.7-.8-2.1-6-.1-6.4 2.4-.2 1.2-1 2.2-1.8 2.2-1 0-1.4-.8-1.2-2.3.3-1.9-.2-2.2-3.4-2.5-3.1-.3-3.7 0-4 1.8-.2 1.1-.7 2.2-1.3 2.3-.6.1-1.1-4.4-1.3-11.6l-.3-11.7h3.6c4 0 4.1-.3 2.1-6.8-.8-2.6-3.2-10.9-5.3-18.5-3.5-12.5-5.5-16.2-6-11.1-.2 2.1-1 5.7-1.3 6.1-.4.5-.7 2.3-1 5l-.2 2.8-.7-3c-.3-1.6-.6-7.2-.6-12.5v-9.5l2.7-.3c2.4-.3 2.6-.6 2.2-3.5-.3-1.8-.5-4-.5-5 0-.9-.4-1.7-.8-1.7s-.8-1.3-.9-3c0-1.6-.4-3.5-.9-4.2-.4-.7-.9-2.9-1-4.8-.1-1.9-.7-3.6-1.3-3.8-.5-.2-.8-.7-.5-1.2.2-.4-.2-3.1-1.1-6.1-.9-2.9-1.8-6.2-2-7.3-1.1-6.1-1.7-7.7-2.4-6.9-.9 1-4.4 16-4.4 19 0 1.3-.3 2.3-.7 2.3-.7 0-2.5 9.7-2.1 11.2.1.5-.2.8-.7.8-.4 0-.8 1-.7 2.2.1 2-.5 2.3-3.6 2.6l-3.8.3v-20.6c0-17-.3-20.7-1.4-21.1-2-.8-12.6-1.1-12.6-.4 0 .9-7.3.5-8.7-.3-.6-.4-1.4-.4-1.6 0zM157.8 189.7c-.7 2.5.6 5.3 1.4 3.1.3-.7.2-2.2-.2-3.2-.6-1.9-.7-1.9-1.2.1zM430.6 189.6c-.8 2.2-.1 2.8 1.9 1.7 1.4-.8 1.4-1.1.2-2.2-1.2-.9-1.6-.8-2.1.5zM129 193.2c0 .9-.8 2.2-1.7 2.7-1.7 1-1.7 1 0 1.1 1 0 1.7.8 1.7 2.1 0 1.2.4 1.7 1.1 1.4.6-.4.8-1.3.5-2.1-.3-.9.1-1.4 1.2-1.4 1 0 1.3-.3.6-.8-.6-.4-1.6-1.6-2.2-2.7-1-1.7-1.1-1.7-1.2-.3zM196 198.4c0 2.7 2.4 5.3 3.5 3.6.3-.6 1.1-.7 1.7-.4.7.4.8.2.4-.4-.4-.7-.2-1.2.4-1.2.8 0 .8-.6 0-2-.6-1.2-2.1-2-3.5-2-2 0-2.5.5-2.5 2.4zM400.6 196.8c-.2.4-.1 1.4.3 2.1.6 1 1 .9 1.4-.3.6-1.6-.8-3.2-1.7-1.8zM419.8 197.2c.9.9 1.5.9 2.4 0 .9-.9.7-1.2-1.2-1.2s-2.1.3-1.2 1.2zM459 201.2c0 1.7.2 1.8 1.5.8.8-.7 1.5-1.4 1.5-1.5 0-.2-.7-.5-1.5-.9-1-.4-1.5.1-1.5 1.6zM439.2 205c-.7 1.1-.8 2-.3 2s1.2 1 1.6 2.2l.8 2.3.4-2.3c.2-1.2.9-2.2 1.4-2.2.5 0 .4-.9-.3-2s-1.5-2-1.8-2c-.3 0-1.1.9-1.8 2zM78.9 206.5c-.1.3-.3.9-.4 1.5-.1.5-.3 1.4-.4 2 0 .5-1.1 1-2.3 1.1h-2.3l2.2.9c1.2.5 2.5 2.1 2.9 3.5.7 2.8 2.5 3.5 1.9.7-.4-2.4.5-3.8 3-4.5 1.5-.3 1.3-.5-.8-.6-2.4-.1-2.7-.4-2.3-2.6.3-1.4 0-2.5-.5-2.5s-1 .2-1 .5zM396 209.3c0 .9.4 1.8.9 2.1.5.4.8-.1.7-.9-.3-2.1-1.6-3.1-1.6-1.2zM100.6 213.6c-.4 1-.2 2.2.3 2.7.7.7 1.3.5 1.7-.7.4-1 .2-2.2-.3-2.7-.7-.7-1.3-.5-1.7.7zM425 213.9c0 1.1.4 2.2.9 2.5 1.1.7 2-1.4 1.3-3.2-.7-1.9-2.2-1.4-2.2.7zM124.7 216.4c-.3.8.1 1.7.9 2 .9.4 1.4-.1 1.4-1.4 0-2.3-1.5-2.7-2.3-.6zM461.4 217.3c-.7.8-.6 1.9.4 3.9 1.6 3.2 2.7 3.7 1.9.8-.3-1-.1-2 .5-2.2 1-.4 0-3.8-1.1-3.8-.3.1-1.1.6-1.7 1.3zM42.9 222.2c0 .2-.2 1.9-.4 3.8-.1 1.9-.3 3.8-.4 4.1 0 .4-1.6 1-3.3 1.4l-3.3.7 3.5 1.2c2.9 1.1 3.5 1.8 3.5 4.2.1 3.1 1.9 4.5 2.1 1.6.1-.9.3-2 .4-2.5.1-.4.3-1.2.4-1.9 0-.7 1.2-1.5 2.6-1.9l2.5-.7-3-1.1c-2.2-.8-3.2-1.9-3.3-3.6-.3-4.1-.5-5.5-.9-5.5-.1 0-.3.1-.4.2zM67 227.5c0 1.8-.8 2.9-2.7 3.7-2.7 1.1-2.7 1.2-.6 1.5 1.5.3 2.5 1.4 2.9 3.1 1.1 5.2 1.8 5.7 2.3 1.7.5-3.2 1.1-4.1 2.9-4.3 2.6-.4 2-2.2-.9-2.2-1.4 0-1.9-.7-1.9-3 0-1.7-.4-3-1-3-.5 0-1 1.1-1 2.5zM414.6 230.5c-1.4 2.2-1.4 2.5-.2 2.5 1 0 1.3.6 1 1.5-.9 2.2.9 1.8 2.3-.5.8-1.2.9-2.1.3-2.5-.6-.4-.8-1-.5-1.5.3-.5.1-1.1-.4-1.4-.5-.3-1.6.5-2.5 1.9zM474 230.2c0 4.2-1 5.8-3.7 5.8-1.4 0-2.2.4-1.8 1 .4.6 1.2 1 1.8.9 3.1-.4 3.7.3 3.7 4.1 0 2.2.5 4 1 4 .6 0 1-1.8 1-4 0-3.8.6-4.5 3.7-4.1 2.7.3 2-1.7-.7-2.3-2.3-.4-3-1.1-3-2.8 0-1.3-.5-3-1-3.8-.8-1.2-1-.9-1 1.2zM100.1 231.2c-.1.9-.7 1.9-1.3 2.1-.9.4-1 .8-.2 1.4.6.4 1.4 1.5 1.7 2.3.4 1.2.6 1.2.6-.2.1-.9.7-1.9 1.4-2.1.8-.4.9-.8.1-1.4-.6-.4-1.4-1.5-1.7-2.3-.4-1.2-.6-1.2-.6.2zM452.8 231.2c-.3.7-.3 1.8-.1 2.5.4 1 .7 1 1.7 0 .8-.6 1.1-1.8.9-2.4-.7-1.7-2-1.7-2.5-.1zM83.1 239c.4 3.3-.7 5-3.4 5.1-2 .1-1.9.2.5 1 2.1.8 2.8 2 3.6 5.7l1 4.7.1-4.3c.1-3.9.4-4.4 3.3-5.7l3.3-1.3-3-.4c-2.3-.2-3.1-.9-3.3-2.8-.2-1.4-.8-3-1.4-3.5-.6-.7-.9-.2-.7 1.5z"/><path d="M226 255.5v9.6l4.3-.3 4.2-.3v-18l-4.2-.3-4.3-.3v9.6zM237.5 254.7c.2 4.8.3 9.1.4 9.5 0 .5 1.7.8 3.6.8h3.5v-8.5c0-4.7.1-8.8.3-9.3.1-.4-1.6-.8-3.9-1l-4.1-.3.2 8.8zM433.5 247.4c-.8.7-.7 1.8.1 3.4l1.1 2.3.6-2.2c.8-2.9-.4-5.1-1.8-3.5zM96.5 250.1c.2 1.2.1 2.7-.3 3.3-.4.6-.7 1.5-.7 2.1 0 .5-1.2 1.1-2.7 1.3-3.3.4-3.7 1.7-.7 1.9 3 .3 3.9 1.4 4.4 5.8.7 5 2.2 6.7 2 2.2-.3-5.1 1-7.4 4.5-8.2 3.4-.8 3.3-1.7-.2-1.9-3.5-.2-4.9-1.5-4.4-4.1.3-1.3-.2-2.9-.9-3.5-1.2-1-1.3-.8-1 1.1zM486 248.5c-.1.5-.3 2.6-.4 4.5-.1 3.2-.4 3.5-3.6 3.8l-3.5.4 3.5 1.6c2.9 1.4 3.5 2.3 3.6 5 .1 3.9 1.9 6.4 2.1 2.9.3-6 .7-6.8 3.5-7.4 3.6-.7 4.9-2.5 1.4-1.9-2.6.5-3.8-.6-4.3-3.5-.4-2.4-2.2-6.5-2.3-5.4zM56.9 254.2c-.1.7-.2 2-.3 2.8-.1 1-.9 1.4-2.5 1.2-1.5-.2-2.1 0-1.7.7.4.6 1.6 1.1 2.7 1.1 1.7 0 2.6 2.6 2 6.2 0 .5.4.8.9.8.6 0 1-1.4 1-3.1 0-2.2.5-3.2 2-3.6 1.1-.3 2-.9 2-1.4 0-.5-.9-.9-2-.9-1.5 0-2-.7-2-2.5 0-2.5-1.9-3.6-2.1-1.3zM366 254.8c-4 1.3-3.1 5.2 1.1 5.2 2.4 0 2.9-.4 2.9-2.4 0-2.5-1.5-3.6-4-2.8zM461.8 255.9c-1.5 1.7-1.4 2.1.4 4.7 1.7 2.4 1.9 2.6 1.5.7-.3-1.4.1-2.4 1.1-2.8 1.1-.4 1.3-.9.6-1.3-.6-.4-1.3-1.3-1.5-2-.3-.9-.9-.7-2.1.7zM123.6 255.9c-.4.6-1.2.9-1.7.6-.5-.4-.9.8-.9 2.4 0 1.7.3 3.1.8 3.1.4 0 .6 9.2.4 20.5-.3 20.1-.2 20.5 1.8 20.5s2-.4 1.9-20.6c-.1-11.3.2-20.8.5-21.1 1-1 .7-2.8-.7-4.8-1-1.3-1.6-1.5-2.1-.6zM365.5 263.2c-.2.7-.3 9.8-.2 20.1.1 16.4.3 18.7 1.6 18.5 1.4-.3 1.6-3.1 1.9-20.1.2-17.3 0-19.7-1.3-19.7-.9 0-1.7.6-2 1.2zM370.6 262.7c-.3.4-.6 3.5-.6 7 0 5.7.2 6.5 2.3 7.2 1.2.5 2.6.6 3.1.3.6-.3 2.6-.7 4.5-.8 4.2-.3 6.2-.7 7.6-1.5.6-.4 1.8-.5 2.8-.4.9.2 1.7-.1 1.7-.5 0-.5 1-.7 2.2-.5 1.2.3 2.7 0 3.4-.6.8-.7 1.4-.7 1.9.1.3.5-.1 1-.9 1-.9 0-1.6.4-1.6 1 0 .5-.3.9-.7.8-1.4-.4-12.2 4.5-11.7 5.3.2.4-.1 1.1-.6 1.4-2.7 1.6 2.7 3.4 10.3 3.5 6 0 7.9.3 8.3 1.5.7 1.7 1.3 1.8 3.2.7 2.3-1.5.2-4-4.4-5.1-2.5-.6-4.9-.9-5.3-.6-.5.2-1.4-.1-2-.8-.8-1.1-.2-1.8 2.7-3.2 2-1 4-1.9 4.4-1.9.3-.1 1.8-1.1 3.2-2.3 2.7-2.4 2.6-4.6-.2-5.9-1.9-.7-2.4-.8-9.7-1.8-13.2-1.8-18.6-2.7-20.8-3.5-1.4-.6-2.8-.7-3.1-.4zM25.7 264.4c-.3.8.1 2.2.9 3.3.9 1 1.3 1.3 1 .6-.4-.6-.2-1.3.3-1.5.5-.1.4-1.1-.4-2.1-1-1.4-1.4-1.5-1.8-.3zM69.6 263.7c-1.1 1.1-.6 2.3.9 2.3.8 0 1.5-.4 1.5-.9 0-1.3-1.6-2.2-2.4-1.4zM127.8 264.7c-.9 1.8-.1 12.5 1 13.1 1.2.8 6.3.6 10.2-.3 1.4-.3 3.6-.8 5-1 1.4-.2 3.5-.7 4.8-1 5.2-1.2 5.9-1.3 7.3-.4 1.2.7 1.2.9-.1.9-2.5 0-14.9 6.2-15.5 7.8-1 2.6 1.1 3.4 10 3.7 4.7.2 9.3.9 10 1.5 1.5 1.2 3.5.6 3.5-1 0-1.4-3.8-3.1-8.7-3.9-2.4-.3-4.4-1.1-4.5-1.6-.1-.6 2.2-2.2 5.1-3.6 2.9-1.5 6-3.4 6.9-4.2 3.3-3.4-2.1-5.8-16.3-7.2-6.1-.6-14.4-2.1-16.6-3-1-.3-1.9-.3-2.1.2zM453.9 270c-.1 1.4-.3 3.4-.3 4.5-.1 1.5-.9 2.1-3.4 2.3-3.3.3-4.6 2.2-1.4 2.2 2.7 0 4.2 2 4.2 5.4 0 2.9 1.8 7.3 2.1 5.1.1-.6.2-1.5.4-2 .1-.6.3-2.4.3-4.2.2-2.8.6-3.3 3.7-3.9 4.1-.7 3.7-2.4-.6-2.4-2.5 0-2.9-.4-3-2.8 0-1.5-.4-3.6-.9-4.7-.8-1.9-.9-1.8-1.1.5zM105.7 270.9c-.3 1.1-.1 2.3.3 2.6 1.4.8 2.2-1.3 1.2-3.1-.8-1.4-1-1.4-1.5.5zM228.7 269.8l-2.8.3.3 9.2.3 9.2 3 .1c5.1.1 5.3-.2 5.4-9.5.1-9.7-.1-10-6.2-9.3zM239.5 269.9c-1.8.5-2 1.5-2 9.6v9l3.8.1 3.7.1v-9.2c0-9.9-.6-11-5.5-9.6zM84 272c0 .5.5 1 1.1 1 .5 0 .7-.5.4-1-.3-.6-.8-1-1.1-1-.2 0-.4.4-.4 1zM57.9 275.1c0 .2-.3 2-.5 3.9-.7 5.3-1.1 6-3.6 6-1.3 0-2.9.4-3.7.9-1 .6-.1 1.1 2.8 1.6 2.2.4 4.1 1.2 4.2 1.8.2 3.2 1.1 7.3 1.9 8.6.6 1.1.8.4.6-2.2-.1-2.1.1-4 .6-4.3.5-.3.6-.9.4-1.3-.8-1.2.8-2.8 3.9-3.9l3-1-2.6-.1c-3.3-.1-5.1-2.2-5.6-6.3-.3-2.7-1.1-4.9-1.4-3.7zM430.2 279.5c1.4 1.4-1.3 4.5-4 4.6-2.7.2-2.7.2-.2.6 3.7.7 5 2.2 5.1 5.7.1 1.9.3 2.3.6 1.1.2-1.1.6-3 .9-4.3.2-1.2 1.2-2.2 2.2-2.2 1.5-.1 1.4-.2-.3-1.3-1.1-.7-2-1.8-2-2.6s-.7-1.6-1.5-1.9c-.8-.3-1.2-.1-.8.3zM322.7 289.1c-2.6 4.4-4.7 8.5-4.7 9.1 0 1.1 18.4.8 19.5-.4.4-.4-.2-2.2-1.4-4-1.1-1.8-3.3-5.4-4.8-8-1.6-2.6-3-4.8-3.3-4.8-.3 0-2.7 3.6-5.3 8.1zM486 283.2c-.2 1.6-.4 3.2-.5 3.8l-.4 2c0 .6-.7 1-1.3.9-2.4-.3-3.8.1-3.8 1 0 .6.9.8 2 .6 1.5-.3 2.4.3 3.1 2.2.5 1.5.8 3.2.5 3.8-.2.7 0 1.8.5 2.6.6 1 .9 1.1 1 .1.4-3.4.7-5.3.9-6 .1-.4.2-1 .2-1.3-.1-.3.6-.6 1.4-.7.8-.1 2.1-.3 2.9-.4 2-.2.6-1.5-2-2-1.1-.2-2-1-2.1-1.8 0-.8-.4-2.2-.7-3-.3-.8-.8-2.2-1-3-.3-.8-.6-.3-.7 1.2zM69.7 282.7c-1.3 1.2-.7 2.3 1.3 2.3 1.1 0 2-.7 2-1.5 0-1.5-2.1-2.1-3.3-.8zM46.4 297.8c-.4 2.8-1.1 4.1-1.9 3.8-.6-.2-1.7-.1-2.4.4-.9.5-.5.9 1.3 1.4 1.4.3 2.7 1.4 2.8 2.4 0 .9.2 2.2.2 2.9.1.6.5 1.5.9 1.9.7.8 1.1-.8.7-3.9-.1-1.1 1-2.3 3.2-3.2 3.2-1.4 3.2-1.4.6-1.5-2.6 0-4.6-2.9-3.4-4.8.2-.4.1-1.4-.4-2.2-.7-1.1-1.1-.2-1.6 2.8zM18 301c-1.3 1.3-1.3 1.7.3 3.2 1.3 1.4 1.7 1.5 1.7.4 0-.8.4-1.6.9-1.8.5-.2.4-1-.2-1.8-1.1-1.4-1.3-1.4-2.7 0zM169.9 303.7c0 .5-.2 1.8-.5 3-.3 1.9 0 2.1 2.8 1.9 3.5-.3 4.6-1.9 2.8-4.1-1.3-1.6-4.9-2.1-5.1-.8zM364.1 304.8c-1.2 2.2.3 4.2 3.1 4.2 2.4 0 3.4-2.6 1.8-4.5-1.7-2-3.7-1.9-4.9.3zM70.2 305.6c-1.1 1.2-1.1 1.7.1 2.9 1.3 1.3 1.6 1.3 2.1-.1.3-.9.3-2.2-.1-2.9-.7-1.1-1-1-2.1.1zM120.7 306.4c-.9 2.3.1 4.3 2.3 4.9 2.3.6 4.3-1.5 3.8-4-.4-2.3-5.3-3-6.1-.9zM444.1 306.6c0 1.1.3 1.4.6.6.3-.7.2-1.6-.1-1.9-.3-.4-.6.2-.5 1.3zM502.6 306.5c-.3.8-.3 2.2 0 3 .5 1.1-.1 1.5-2 1.5-3.2 0-3.4 1.2-.4 2.5 1.2.6 2.3 2.1 2.5 3.5.4 3.1 2.4 5.4 2.2 2.5-.4-3.7.1-6.6 1-6.1.4.3 1.7-.2 2.7-1 1.6-1.3 1.6-1.5.2-1-2.3.7-5.1-2.2-4.5-4.5.6-2.3-.8-2.6-1.7-.4zM458.4 307.3c-.3.9-1.1 1.4-1.8 1-.6-.4-.4.2.4 1.3.8 1 1.5 2.1 1.6 2.2.1.2.7-.5 1.2-1.5.6-1.1.7-2.5.2-3.3-.7-1.2-1-1.2-1.6.3zM365.6 314.8c-.4 1.1-.6 2.4-.5 2.8.1.5.1 1.1-.1 1.4-.1.3-.3 1.6-.6 3-.2 1.4-.7 3.8-1 5.5-.3 1.6-.7 4.1-.9 5.5-.1 1.4-.4 2.5-.5 2.5-.2 0-1 4.6-1.1 6.5 0 .8-.3 2.2-.6 3-.3.8-.7 2.8-.9 4.5-.3 1.6-.9 3.1-1.4 3.3-.6.2-1 .9-1 1.7 0 .7-.7 1.8-1.6 2.5-.8.8-1.9 2.1-2.4 3-.8 1.4.6 1.6 13.6 1.5 7.9 0 14.4-.4 14.4-.8 0-.5-1.3-2.7-3-5-2.4-3.4-3.6-7.6-7-23.1-2.2-10.4-4.2-19.1-4.4-19.3-.2-.3-.7.4-1 1.5zM475.6 315.5c-.4 1.6-.9 3.6-1.2 4.2-.2.7-1.6 1.3-3.1 1.3l-2.8.1 3.3 1.4c2.6 1.1 3.2 2 3.2 4.5 0 1.6.5 3 1 3 .6 0 1-1.6 1-3.5 0-2.8.4-3.5 1.9-3.5 2.9 0 3.5-1.8.9-2.2-1.8-.2-2.4-1.1-2.9-4.3l-.5-4-.8 3zM142.2 335.3c-2.8 8.9-5.2 16.6-5.2 17 0 .4 5 .7 11 .7 6.1 0 11-.4 11-.8 0-.5-1.4-4.9-3.1-9.8-1.7-4.9-3.3-9.6-3.4-10.4-.2-.8-.4-1.6-.5-1.8-.2-.1-.4-.7-.5-1.2-.1-.6-.4-1.2-.5-1.5-.1-.3-.4-1-.5-1.5-.1-.6-.4-1.2-.5-1.5-.4-.8-.7-2.4-.9-4-.3-4-2.1-.2-6.9 14.8zM60 324.9c0 2 1.3 4.1 2.1 3.5 1.5-.9 1-4.4-.6-4.4-.8 0-1.5.4-1.5.9zM75.5 326c1.3 2.1-.6 5-3.3 5.1h-2.7l2.5 1.2c3.1 1.4 4.1 2.8 3.6 4.8-.2.9 0 2.3.5 3 .9 1.5 1 1.3 1.3-4.1.1-1.6 1-2.9 2.6-3.7 2.5-1.1 2.5-1.1.3-1.2-1.3-.1-2.4-.6-2.4-1.1-.1-.6-.3-1.5-.4-2-.1-.6-.3-1.5-.4-2 0-.6-.6-1-1.2-1-.5 0-.7.5-.4 1zM28.5 330.3c-.4 1-.5 2.1-.1 2.4 1 1 1.8-.4 1.3-2.4-.4-1.7-.4-1.7-1.2 0zM47.2 334.6c-.9 1.7-.8 2.5.3 4 1.3 1.7 1.4 1.8 1.5.1 0-.9.6-1.7 1.3-1.7.8 0 .9-.3.1-.8-.6-.4-1.3-1.4-1.6-2.2-.4-1.2-.7-1-1.6.6zM3.5 336.5c-.5 1.1-1.2 2.2-1.6 2.5-.4.3.1 1.7 1.1 3 1.9 2.4 2 2.5 2 .3 0-1.2.8-2.4 1.8-2.6 1.5-.4 1.5-.5 0-.6-.9 0-1.8-1.1-2.1-2.4-.3-2.1-.4-2.1-1.2-.2zM55.4 344.5c-.5 2.9-1.3 4-3.8 5-3.2 1.4-3.1 1.4 1.8 2.9.7.3 1.6 2.6 2 5.6.8 6 1.3 6.1 2.1.4.9-5.7 1.2-6.4 3.4-6.4 1.1 0 2.3-.5 2.6-1 .3-.6-.5-1-1.9-1-2.9 0-3.6-.9-4.1-5.2-.6-4.4-1.3-4.5-2.1-.3zM453.6 345.5c-.3.8-.1 2.5.4 3.7.6 1.6.9 1.8.9.6.1-.9.7-1.8 1.3-2 .9-.3.8-.9-.4-2.1-1.4-1.4-1.7-1.4-2.2-.2zM35.4 352.3c-1.7 1.9 1.1 4.3 2.9 2.5 1.1-1 1.2-1.5.1-2.5-1.5-1.6-1.6-1.6-3 0zM70.1 351.9c-.1.8-.7 1.9-1.5 2.5-1.1.9-1 1.4.5 2.8s1.9 1.5 1.9.4c0-.8.6-1.7 1.3-1.9.8-.4.9-.8.1-1.4-.6-.4-1.4-1.5-1.7-2.3-.4-1.2-.6-1.2-.6-.1zM471.1 355.4c-1 1.2-1 2 0 3.8.9 1.7 1.3 1.9 1.7.8.3-.8.8-1.7 1.3-2 .4-.3.2-1.3-.6-2.3-1.1-1.5-1.4-1.5-2.4-.3zM24.4 362.9c.4.5.1 1.1-.6 1.3-.8.3-.7 1.1.5 2.8l1.6 2.3.6-2.6c.7-2.7 0-4.7-1.6-4.7-.6 0-.8.4-.5.9zM490.6 362.9c-.7 1.1.5 5.1 1.6 5.1.5 0 .6-.5.3-1-.4-.6-.2-1.7.4-2.4.9-1 .8-1.5-.3-1.9-.9-.4-1.8-.3-2 .2zM355.1 363.9c-1.3.9-1.6 42-.3 43.3.5.5 6.2.7 12.8.6l11.9-.3v-44l-11.7-.1c-6.4-.1-12.1.2-12.7.5zM282 376v9h39.8v-9l-.1-9.1-5.1.3c-4.7.3-5.1.5-5.1 2.8 0 2-.5 2.5-2.5 2.5-2.1 0-2.5-.4-2.2-2.8.3-2.7.3-2.7-5.2-2.7-5.6 0-5.6 0-5.6 3 0 1.9-.5 3-1.4 3-1.9 0-3.4-2.1-3.1-4.3.3-1.4-.5-1.7-4.6-1.7H282v9zM53.1 369.7c-.1 1.5-.7 2.3-1.8 2.3-1.4 0-1.3.4.6 2.1 2.1 2 2.3 2 3.6.3 1-1.5 1-2 0-2.9-.7-.5-1.5-1.7-1.8-2.5-.4-1-.6-.7-.6.7zM98.7 368.7c-.2.5-.3 5.3-.3 10.7.1 6.9.5 10.1 1.4 10.4.6.2 1.2.8 1.2 1.3 0 .6.8 1.8 1.8 2.8 1.5 1.6 3.7 1.8 21.2 1.7l19.5-.1v-27h-4c-3.4 0-4 .3-4.3 2.2-.2 1.3-.8 2.3-1.3 2.3h-1.6c-.5 0-.8-1-.8-2.3 0-1.9-.6-2.2-4.7-2.5-4.7-.3-4.8-.3-4.8 2.7 0 2.1-.5 3.1-1.5 3.1-.8 0-1.4-.3-1.4-.8.7-4.1-.1-5-4.3-4.8-3.6.1-4.3.5-4.8 2.5-.9 3.7-3 3.8-3 .2 0-2.9-.2-3.1-3.9-3.1-2.2 0-4.2.3-4.4.7zM153.7 368.7c-.3.4-.5 4.5-.4 9v8.3h3.1c5.7.1 28 .2 32.3.1l4.2-.1.3-9 .3-8.9-5.5.2c-5.3.2-5.5.3-5.4 3 0 2.3-.4 2.7-2 2.5-1.5-.2-2.2-1.2-2.4-3.1-.3-2.7-.6-2.8-5-2.5-3.9.3-4.7.6-4.7 2.3.1 4.1-4.2 4.8-4.7.7-.3-2.5-.7-2.7-5-3-2.5-.2-4.8.1-5.1.5z"/><path d="M328.9 371.5c-.1.3-.3.9-.4 1.5-.1.5-.3 1.5-.4 2.1 0 .6-.8.8-1.6.5-1.9-.7-3.5 2.8-2.8 6.3.5 2.8-1.5 9.1-2.9 9.1-2.3 0 0 3.5 2.7 4.1 3 .7 3 .7.3.8-1.5 0-3-.4-3.3-.9-.4-.6-1.2-.4-2.2.5-1.3 1.4-1.4 3-.4 12.8.6 6.2 1.3 13.2 1.6 15.7.2 2.5.7 6.1 1 8 .3 1.9.8 6.4 1.1 10 .2 3.6.8 9 1.3 12 .4 3 .8 7.4.7 9.8-.1 2.3.2 4.2.7 4.2.4 0 .7.6.7 1.3 0 1 1.9 1.2 7.8.9 4.2-.2 16.6-.5 27.5-.6 12.3 0 19.7-.5 19.8-1.1.4-3.2.4-6.1-.1-7-.3-.6-.6-2.6-.7-4.5-.1-1.9-.4-5.5-.6-8-1.1-9.7-1.8-16.7-2.1-20-.2-1.9-.4-3.8-.5-4.3 0-.4-4.3-.7-9.5-.7h-9.5l-2.2-5.8c-1.4-3.7-2.3-8.5-2.5-13.6-.2-4.3-.6-8.1-.8-8.4-.3-.2-5.5-.4-11.6-.3-6 0-11-.2-11-.6 0-.5 4.9-.7 11-.6 6.3.1 11.2-.2 11.6-.8.5-.8.7-10.9.5-20.2-.1-2.7-.3-2.8-4.8-2.5-4 .3-4.8.6-4.8 2.3 0 1.4-.8 2.1-2.7 2.3-2.4.3-2.8 0-2.8-2.2 0-2.4-.4-2.6-4-2.6-2.2 0-4.1.2-4.1.5zM452.6 376.5c-.3.9 0 1.5.9 1.5 1.6 0 2-1.6.6-2.4-.5-.3-1.1.1-1.5.9zM3.7 380.7c-1.2 1.1-.8 3.1.8 3.6.8.4 1.6.3 1.9-.1.6-1-2-4.3-2.7-3.5zM33.2 382.3c-1.2 1.5-.7 4.7.8 4.7 1.3 0 2.1-3.1 1.2-4.6-.7-1.3-1-1.3-2-.1zM478.1 383.9c-1.1.7-1.1 1.3.3 3.2 1.2 1.8 1.6 1.9 1.6.7 0-.9.5-1.8 1.1-2 .7-.2.6-.8-.3-1.5-.8-.7-1.9-.8-2.7-.4zM69.1 386.3c-.6.7-.6 1.8-.1 2.6.7 1.2 1 1.2 2.3 0 1.1-1.2 1.2-1.7.1-2.6-.9-.9-1.5-.9-2.3 0z"/><path d="M298.8 386.7c-14.4.3-19.3 1-16 2.5 1.4.6 6.4 8.7 5.8 9.6-.3.5-.8 4.9-1.1 9.8-.3 4.9-.7 10.9-1 13.4-.2 2.5-.9 10.6-1.5 18s-1.5 17.1-1.9 21.5c-.4 4.4-.6 8.2-.4 8.5.6.7 37.4.6 38.6-.2.8-.5 0-10.9-2.7-36.7l-3.8-36 3.6-5.1c2-2.7 3.3-5 2.8-5.1-3.5-.4-7.9-.4-22.4-.2zM171.2 388l-17.3.5 3.1 4.9 3.1 4.9-2.6 30.1c-1.4 16.5-2.8 32.5-3.1 35.5-.3 2.9 0 5.8.5 6.5.6.7 5.9 1.1 16.8 1 25.2-.3 22.6.2 21.9-4.2-.4-2-.9-6.4-1.1-9.7-.3-3.3-.8-8.5-1.2-11.5-.3-3-.7-7.8-.7-10.5-.1-2.8-.4-5.2-.8-5.5-.3-.3-.9-4.6-1.3-9.5-1-14-1.4-18.8-1.8-21-.3-1.2 1-3.9 2.9-6.6 2.9-3.9 3.1-4.8 1.8-5.3-.8-.3-1.9-.5-2.2-.4-.4.1-8.5.5-18 .8zM106.9 397.8c-1.2.2-1.8 4.1-3.3 22-1.8 22.3-2.2 26.7-3.1 38.7-.2 3.8-.7 8.2-1.1 9.8-.4 1.8-.1 2.7.8 2.8.7 0 10 .1 20.5.2l19.3.2v-74h-15.8c-8.6 0-16.4.1-17.3.3zM46 401.6c0 1.4.3 1.4 1.5.4.8-.7 1.5-1.4 1.5-1.6 0-.2-.7-.4-1.5-.4s-1.5.7-1.5 1.6zM465.8 410.2c-2.1 2.1-2.3 2.9-.5 2.5.6-.1 1.1.6 1.1 1.5-.2 2.5 1.1 2.2 2.3-.5.8-1.6.7-2.7-.1-3.8-1-1.3-1.3-1.3-2.8.3zM355.6 409.9c-.4.5.4 3.5 1.6 6.6l2.1 5.7 7.6-.6c4.2-.3 8.1-.6 8.7-.6 1 0 2.6-3.8 2.6-6 0-.3.4-1 .9-1.6.5-.6.7-1.9.3-2.8-.5-1.3-2.4-1.6-11.9-1.6-6.3 0-11.6.4-11.9.9z"/></svg>