<?xml version="1.0" standalone="no"?>
<!DOCTYPE svg PUBLIC "-//W3C//DTD SVG 20010904//EN"
 "http://www.w3.org/TR/2001/REC-SVG-20010904/DTD/svg10.dtd">
<svg version="1.0" xmlns="http://www.w3.org/2000/svg"
 width="350.000000pt" height="350.000000pt" viewBox="0 0 350.000000 350.000000"
 preserveAspectRatio="xMidYMid meet">
<metadata>
Created by potrace 1.11, written by Peter Selinger 2001-2013
</metadata>
<g transform="translate(0.000000,350.000000) scale(0.100000,-0.100000)"
fill="#000000" stroke="none">
<path d="M113 3026 c-48 -22 -47 -10 -49 -901 -2 -744 -4 -847 -19 -899 -19
-69 -25 -109 -29 -193 -3 -69 0 -78 28 -78 19 0 20 -9 20 -210 1 -183 3 -214
18 -238 10 -14 26 -30 35 -36 11 -5 472 -9 1153 -9 1223 0 1162 -3 1192 50 9
17 13 81 14 223 l0 200 35 -2 c90 -6 238 -6 274 1 263 44 489 213 611 455 40
80 75 209 77 283 1 37 4 68 7 68 10 0 -3 122 -22 195 -20 80 -79 228 -98 245
-3 3 -18 24 -34 47 -99 146 -289 280 -452 318 -10 2 -39 9 -64 16 -53 13 -214
16 -284 5 l-48 -8 26 29 c14 15 26 39 27 53 1 14 3 66 5 115 2 50 5 127 7 173
l4 83 -45 -5 c-34 -4 -51 0 -69 14 -23 18 -67 18 -1161 17 -765 0 -1144 -4
-1159 -11z"/>
</g>
</svg>
