<svg version="1" xmlns="http://www.w3.org/2000/svg" width="346.667" height="346.667" viewBox="0 0 260.000000 260.000000"><path d="M158.5 27.5c-2 3.1-4.3 7.1-5.1 8.8-.9 1.8-3.5 6.1-6 9.7-4.8 7.1-5.4 9-2.6 9 3.9 0 3.9 0-5.5 16.5-1.9 3.3-4.9 8.4-6.7 11.3l-3.4 5.3-2.1-2.7c-1.1-1.5-2.1-3.2-2.1-3.9 0-.7-1.4-3.1-3.1-5.4C117.5 70 110 57 110 55.5c0-.3 1.4-.5 3-.5h3l-1.9-3.8c-1.1-2-4-6.4-6.5-9.7-2.5-3.2-4.8-7-5.1-8.3-.3-1.3-1.7-4.1-3.2-6.3-2.2-3.3-2.8-3.7-4.5-2.8-1.1.6-2.7 2.7-3.7 4.7-2.2 4.9-6.7 12.5-11.3 19.1-2.1 3-3.8 5.8-3.8 6.3 0 .4 1.4.8 3 .8 1.7 0 3 .2 3 .5 0 1-6.3 12.1-9.9 17.4-2.1 3.1-5 7.7-6.5 10.3l-2.7 4.7 2.5.7c3.2.8 3.2 1.5.3 5.1-2.5 3-12.7 20.6-12.7 21.8 0 .4-.9 2-2.1 3.6l-2.1 3 14.8-.1c25.5-.2 23.4-.4 23.2 2.7-.1 1.6-.1 4.7 0 7l.2 4.2 8.8-.2 8.7-.3.2-5.9c.1-3.3.2-6.5.2-7 .1-.6 9-1 24.4-1.1l24.4-.1-.5 7.2-.4 7.3 9-.1 9.1-.1.5-4.6c.3-2.5.4-5.6.3-6.9l-.2-2.5 18.3.2c10 0 18.2-.1 18.2-.3 0-1.3-3.8-8.4-5.7-10.8-1.3-1.6-2.3-3.3-2.3-3.9 0-.5-1.3-2.7-2.9-4.7-2.9-3.7-7.1-11.3-7.1-12.9 0-.5 1.3-.8 2.9-.7 2.7.2 2.9.1 2-2.1-.5-1.4-3.1-5.7-5.7-9.7-2.7-3.9-5.7-8.8-6.7-10.7-1-1.9-2.8-4.8-4.1-6.3-3.2-3.9-3-4.7 1.1-4.3l3.5.2-1.9-3c-1-1.7-5.1-8.5-9.1-15.1-10.8-17.8-9.3-16.7-13.5-10zm-55 25.8c.3.4.2.5-.2.2-.3-.3-1.2.3-2 1.3-.8.9-1.1 1.1-.7.3.3-.7 0-1.7-.7-2.2-1-.7-.8-.8.8-.6 1.2.2 2.5.6 2.8 1zM134 91.2c-1.6 1.8-3.3 4.1-3.6 5-.8 2.7-1.6 2.2-4.6-2.7l-2.7-4.4 5.2-.4c2.9-.2 6-.4 7-.5 1.4-.2 1.2.5-1.3 3zM26.2 40.1c-3.1 3.4-9.4 9.8-13.9 14.2-6.5 6.4-8 8.4-7.3 9.7 1.1 2.1-.6 4.1-2.9 3.2-1.3-.5-1.2-.7.6-1.2 1.7-.4 2-.9 1.3-2-.8-1.3-1.1-1.2-2.4.5C.7 65.7.5 67.1 1 68c.4.8 7.8 8.7 16.4 17.4 17.3 17.6 15.7 16.9 22.2 9.7 3-3.3 3.1-3.6 1.7-5.8-.8-1.3-1.9-2.3-2.4-2.3C38 87 19 68.5 19 67.5c0-.3 4.7-5.2 10.4-10.9 5.8-5.7 10.2-10.7 9.9-11-.4-.3.1-.6 1-.6 3.1 0 2.3-2.6-2.2-6.8-2.5-2.3-4.9-4.2-5.4-4.2s-3.4 2.8-6.5 6.1zm10.2 4.1c-.9 1.4-2.3-.2-1.7-1.8.4-1.2.8-1.3 1.4-.3.4.7.5 1.7.3 2.1zM39 42c0 .5-.2 1-.4 1-.3 0-.8-.5-1.1-1-.3-.6-.1-1 .4-1 .6 0 1.1.4 1.1 1zM17.4 52.6c.3.8.2 1.2-.4.9-.6-.3-1-1-1-1.6 0-1.4.7-1.1 1.4.7zM28 56.1c0 .5-.8.9-1.7.8-1.1 0-1.3-.3-.5-.6.6-.2.9-1 .6-1.5-.4-.7-.2-.8.4-.4.7.4 1.2 1.1 1.2 1.7zM221.2 38.6l-4.3 4.5 11.9 12 12 11.9-2.7 3.1c-1.4 1.6-5.2 5.6-8.5 8.7-3.2 3.1-7.4 7.2-9.2 9l-3.4 3.3 4.8 5.5 4.7 5.5 3-3.8c3.2-3.9 19.9-20.7 22.6-22.7.9-.6 3.1-2.8 4.9-4.9l3.3-3.8-11.2-11.2c-6.1-6.2-11.9-11.9-12.8-12.7-.9-.8-3.2-3.2-5.1-5.3-2-2-4-3.7-4.6-3.6-.6 0-3 2-5.4 4.5zM1.3 157.9c0 5.2.4 8.9 1.1 9.3.6.4 3 .8 5.4.8 4.1 0 4.3-.1 4.2-2.8-.4-6-.3-6.2 4.8-6.2h4.7v28.5l-3 1c-1.6.5-2.9 1.3-2.7 1.7.1.5.2 2.4.2 4.4 0 3.6 0 3.6 3.8 3 2-.3 7.9-.7 12.9-.8l9.3-.3v-4.3c0-4-.2-4.2-2.9-4.2h-3v-29h5c4.6 0 4.9.2 4.5 2.2-.8 4.7.8 6.5 6.1 6.5l4.8.1v-8.2c0-4.4-.4-8.6-.7-9.2-.5-.7-9.6-1.1-27.6-1.1l-26.9-.1v8.7zM67.7 149.6c-.1.1-.1 2.3.1 4.8.3 3.5.8 4.6 2.1 4.6 1.4 0 1.6 1.7 1.8 14 .1 12.9 0 14-1.7 14-2 0-3 1.9-3 5.6 0 2.1.5 2.4 3.8 2.5 10.4.2 18.7-.3 19.3-1.2.3-.6.6-2.2.5-3.7-.1-2-.7-2.8-2.3-3-1.9-.3-2.2-.9-2.1-4.8l.1-4.5 10.6.3 10.6.3-.1 4c0 3.3-.4 4.1-2.2 4.3-1.8.3-2.2 1-2.2 4.1v3.8l11.5-.1c7.3 0 11.6-.4 11.9-1.1.7-2-.6-6.5-1.9-6.5-2.1 0-2.6-2.8-2.4-15.7.2-11.3.3-12.3 2-12.3 1.6 0 1.9-.8 1.9-5.1v-5l-11.5.3-11.5.3v4.7c0 4 .3 4.8 1.9 4.8 1.4 0 2 .9 2.3 3.2.7 6.6.7 6.6-10.8 6.6H86v-4.9c0-4.6.2-4.9 2.6-4.9s2.5-.2 2-4.8c-.2-2.6-.5-4.8-.5-5-.1-.3-22 0-22.4.4zM149.1 153.6c.2 2.7.9 4.8 1.7 5.3 1.1.6 1.2 1.3.4 2.7-.6 1.1-1.7 4.4-2.5 7.4-.9 3-2.5 8.3-3.8 11.7-1.8 5.3-2.6 6.3-4.5 6.3-2.1 0-2.4.5-2.4 3.7v3.8l10.9.2c10.5.2 10.9.2 11.3-2 .7-3.9-.2-5.7-2.8-5.7-2.1 0-2.3-.3-1.4-1.9.9-1.8 2.1-2 11.9-2 9.8.1 11 .3 11.4 1.9.4 1.5-.2 2-2.7 2.2-2.8.3-3.1.7-3.4 4l-.3 3.8 8.3.1c4.6.1 11 .2 14.3.3l6 .1v-3.8c.1-3.6-.8-4.3-4.6-3.9-.3.1-2.2-5.4-4.2-12.1-2.1-6.7-4.8-15.3-6.2-19.2l-2.4-7-17.6-.2-17.6-.2.2 4.5zm22.6 8.1c3.1 8.7 4.3 12.7 3.9 13-.4.4-6 .6-13.3.4l-3.1-.1 2.4-7.1c3-9 3-8.9 6.3-8.9 2.2 0 3.1.6 3.8 2.7zM203.6 149.9c-.1.3-.2 4.4-.2 9.1l.1 8.5 5.3.1 5.2.2V159h4.9c4.6 0 4.9.1 4.9 2.7 0 1.6.1 7.1.2 12.3.3 14.6.4 14-2.9 14-2.8 0-3 .2-2.8 4l.2 3.9 5 .5c2.7.3 8.6.7 13 1l8 .5.1-4c.1-2.1-.3-3.9-.8-3.9s-.7-.4-.3-.9c.3-.6-.4-.8-1.5-.6-1.2.2-2.3-.1-2.5-.8-.2-.7-.6-7.4-.8-15l-.3-13.7h4.8c4.5 0 4.8.1 4.9 2.7.1 1.6 0 3.6-.1 4.6-.1 1.6.6 1.8 5.3 1.6l5.5-.2-.1-9.3v-9.2l-27.4.1c-15.1 0-27.5.3-27.7.6zM41.5 209.5c-2.3 2.3-2.5 3.1-2.5 13s.2 10.7 2.5 13c4.3 4.4 12.7 2.6 13.7-2.9.3-1.4.1-2.9-.4-3.4-1.5-1.5-4.6-.3-5.1 2-.4 1.2-1.2 1.8-2.4 1.6-1.6-.3-1.8-1.4-1.8-10.3 0-8.3.3-10 1.6-10.3.9-.1 2 .8 2.7 2.2 1.8 4.1 6.5 2.3 5.3-2.2-1.4-5.3-9.5-6.9-13.6-2.7zM60.5 209.3c-2.6 2.2-2.7 2.6-2.6 12.1.1 5.4.4 10.8.7 12.1 1.1 4.5 9.4 6 13.2 2.5 2-1.9 2.2-3 2.2-13.3 0-11.9-.2-12.7-3.7-14.6-3.4-1.7-6.9-1.3-9.8 1.2zm7.9 13.2c.2 9.1-.8 12.2-3.4 10.5-1.2-.7-1.4-2.9-1.3-10.5.3-10.7.8-12.4 3-10.2 1 1 1.5 4.1 1.7 10.2zM77.9 208.3c-.1 2-.1 24 0 26.9.1 2.3.6 2.8 2.6 2.8 2.3 0 2.5-.4 2.6-4.8.1-2.6.2-6.3.1-8.2-.1-2.7.5-1.6 2.6 4.7 2.4 7.7 2.8 8.3 5.3 8.3 2.6 0 2.7-.2 3.1-6.3.1-3.4.1-10.2-.2-15.2-.5-8.8-.6-9-3-9s-2.5.3-2.6 6.3c-.1 3.4-.3 6.5-.6 6.7-.2.3-1-1.9-1.7-4.8-.8-2.8-1.7-5.9-2.1-6.7-1-1.9-6-2.5-6.1-.7zM98.5 207.8c-.3.3-.5 7.2-.5 15.4v14.9l2.8-.3c2.7-.3 2.7-.4 2.7-7.1-.1-6.6.2-7.1 3.8-6.8 1.2.2 1.7-.5 1.7-2.3 0-2-.6-2.5-2.7-2.8-2.4-.3-2.8-.8-2.8-3.3 0-2.7.3-3 3.8-3.3 3.1-.3 3.7-.7 3.7-2.6 0-2-.5-2.2-6-2.2-3.3 0-6.2.2-6.5.4zM114 222.7V238h7c6.8 0 7-.1 7-2.5 0-1.4-.3-2.4-.7-2.4-.5.1-2.3.1-4.1 0-3.3-.1-3.3-.1-3-4.9.3-4.2.5-4.7 2.6-4.4 1.8.3 2.2-.2 2.2-2.2 0-2.1-.5-2.6-2.5-2.6-2.2 0-2.5-.4-2.5-3.5 0-3.3.2-3.5 3.5-3.5 3 0 3.5-.3 3.5-2.3 0-2.2-.4-2.3-6.5-2.3H114v15.3zM131.5 208c-.5.8-.9 22.2-.6 28.7.1 1.4 5 1.8 5.2.5.1-.4.2-3 .3-5.7.1-6.2 1.4-5.9 4.2.9 1.8 4.5 2.4 5.1 5.2 5.4l3.2.3-2.5-5.7c-1.4-3.2-2.7-6-2.9-6.2-.3-.2.7-2 2-4 2.1-3 2.4-4.3 1.8-7.6-.3-2.2-1.3-4.6-2-5.4-1.7-1.6-13.1-2.6-13.9-1.2zm8.9 4.6c1.9.7 2.1 5.5.4 7.2-.7.7-2 1.2-2.9 1.2-1.3 0-1.6-.9-1.5-4.5.1-4.5.8-5.1 4-3.9zM151.5 207.9c-.3.2-.5 4.4-.5 9.2 0 6 .4 8.9 1.3 9.2 1 .4 1 .6 0 .6-.9.1-1.3 1.9-1.3 5.6v5.5h7c6.8 0 7-.1 7-2.5 0-2.3-.4-2.5-4-2.5h-4v-4.9c0-4.6.2-4.9 2.1-4.6 2.9.6 3.8-.1 3.2-2.5-.3-1.3-1.4-2-2.9-2-2.1 0-2.4-.5-2.4-3.5 0-3.4.1-3.5 3.9-3.5 3.5 0 3.8-.2 3.4-2.5-.5-2.3-.9-2.4-6.4-2.3-3.3.1-6.2.4-6.4.7zM168.4 208.2c-.6.9-.8 15.6-.5 27.5.1 1.9.7 2.3 3.1 2.3h2.9l-.4-7.6c-.2-4.2 0-7.3.4-6.8.9 1.1 4.1 11.1 4.1 13 0 1.5 5.9 2.1 6.1.6.1-1.1.1-25.4 0-27.7-.1-2.3-3.6-3.1-4.8-1.2-.4.7-.6 3.9-.5 7.2.4 7.2-.7 6.5-3.2-2-1.5-5.1-2.2-6.1-4.1-6.3-1.3-.1-2.7.3-3.1 1zM192.5 208c-4 1.5-4.6 3.4-4.6 14.2 0 11.9.3 13.1 3.7 14.7 6 2.7 12.4-.1 12.4-5.4 0-2.1-.5-2.5-3-2.5-1.6 0-2.9.3-2.9.7.4 2.3-.3 3.3-2.1 3.3-2 0-2.1-.5-1.8-10.2.3-8.8.6-10.3 2-10.6 1.1-.2 1.9.5 2.3 2.1.9 3.3 4.9 3 5.3-.4.6-5-5.4-8.2-11.3-5.9zM208.1 209.2c-.5 1.4-.7 19.2-.2 27.1.1 1.6.9 1.8 6.9 1.5 5.9-.3 6.7-.5 6.7-2.3 0-1.6-.8-2.1-4.2-2.3l-4.3-.3v-4.5c0-2.4.5-4.5 1-4.5.6-.1 1.5-.3 2-.4.6-.1 1.5-.3 2-.4.6 0 1-1 1-2.1 0-1.6-.7-2-3-2-2.8 0-3-.3-3-3.5 0-3.4.1-3.5 3.8-3.5 3.2 0 3.8-.3 4-2.3.1-2.2-.2-2.4-5.9-2.4-5 0-6.2.3-6.8 1.9z"/></svg>